<?xml version="1.0" encoding="utf-8"?>
<!-- Generator: Adobe Illustrator 27.5.0, SVG Export Plug-In . SVG Version: 6.00 Build 0)  -->
<svg version="1.1" xmlns="http://www.w3.org/2000/svg" xmlns:xlink="http://www.w3.org/1999/xlink" x="0px" y="0px"
	 viewBox="0 0 450 550" style="enable-background:new 0 0 450 550;" xml:space="preserve">
<g id="Ñëîé_1">
	<radialGradient id="SVGID_1_" cx="225" cy="275" r="322.0005" gradientUnits="userSpaceOnUse">
		<stop  offset="0" style="stop-color:#F9F9F9"/>
		<stop  offset="1" style="stop-color:#DFDFDF"/>
	</radialGradient>
	<rect style="fill:url(#SVGID_1_);" width="450" height="550"/>
</g>
<g id="Ñëîé_2">
	<g>
		<g>
			<g>
				<path style="fill:#212121;" d="M278.857,37.163c0-5.612-4.551-10.163-10.164-10.163h-0.005l0,0H167.061
					c-5.618,0-10.163,4.551-10.163,10.163c0,0.005,0,0.01,0,0.015l-5.082,71.128v27.949h132.122v-27.949L278.857,37.163z"/>
				<path style="fill:#212121;" d="M156.898,514.837c0,5.612,4.556,10.163,10.163,10.163h0.01l0,0h101.622
					c5.618,0,10.164-4.551,10.164-10.163c0-0.005,0-0.01,0-0.015l5.081-71.129v-27.948H151.816v27.948L156.898,514.837z"/>
			</g>
			<g>
				<g>
					<path style="fill:#D32F2F;" d="M177.225,108.306v25.408h15.245v-25.408L194.425,27h-14.074L177.225,108.306z M255.395,27
						h-14.069l1.96,81.306v25.408h15.245v-25.408L255.395,27z"/>
					<polygon style="fill:#D32F2F;" points="228.041,133.714 207.714,133.714 207.714,108.306 208.498,27 227.257,27 
						228.041,108.306 					"/>
				</g>
				<g>
					<path style="fill:#D32F2F;" d="M180.351,525h14.074l-1.956-81.307v-25.408h-15.245v25.408L180.351,525z M258.53,443.693
						v-25.408h-15.245v25.408L241.325,525h14.069L258.53,443.693z"/>
					<polygon style="fill:#D32F2F;" points="228.041,418.285 207.714,418.285 207.714,443.693 208.498,525 227.257,525 
						228.041,443.693 					"/>
				</g>
			</g>
			<g style="opacity:0.5;">
				
					<linearGradient id="SVGID_00000096780554310912323010000008010254076472369598_" gradientUnits="userSpaceOnUse" x1="217.8774" y1="27" x2="217.8774" y2="136.2549">
					<stop  offset="0" style="stop-color:#000000"/>
					<stop  offset="0.0119" style="stop-color:#121212"/>
					<stop  offset="0.0472" style="stop-color:#444444"/>
					<stop  offset="0.0852" style="stop-color:#707070"/>
					<stop  offset="0.1251" style="stop-color:#979797"/>
					<stop  offset="0.1674" style="stop-color:#B7B7B7"/>
					<stop  offset="0.2128" style="stop-color:#D1D1D1"/>
					<stop  offset="0.2625" style="stop-color:#E6E6E6"/>
					<stop  offset="0.3187" style="stop-color:#F4F4F4"/>
					<stop  offset="0.3868" style="stop-color:#FCFCFC"/>
					<stop  offset="0.5" style="stop-color:#FFFFFF"/>
					<stop  offset="0.6132" style="stop-color:#FCFCFC"/>
					<stop  offset="0.6813" style="stop-color:#F4F4F4"/>
					<stop  offset="0.7375" style="stop-color:#E6E6E6"/>
					<stop  offset="0.7872" style="stop-color:#D1D1D1"/>
					<stop  offset="0.8326" style="stop-color:#B7B7B7"/>
					<stop  offset="0.8749" style="stop-color:#979797"/>
					<stop  offset="0.9148" style="stop-color:#707070"/>
					<stop  offset="0.9528" style="stop-color:#444444"/>
					<stop  offset="0.9881" style="stop-color:#121212"/>
					<stop  offset="1" style="stop-color:#000000"/>
				</linearGradient>
				<path style="fill:url(#SVGID_00000096780554310912323010000008010254076472369598_);" d="M278.857,37.163
					c0-5.612-4.551-10.163-10.164-10.163h-0.005l0,0H167.061c-5.618,0-10.163,4.551-10.163,10.163c0,0.005,0,0.01,0,0.015
					l-5.082,71.128v27.949h132.122v-27.949L278.857,37.163z"/>
				
					<linearGradient id="SVGID_00000032624836884047398700000001297447322843845268_" gradientUnits="userSpaceOnUse" x1="217.8774" y1="415.7451" x2="217.8774" y2="525">
					<stop  offset="0" style="stop-color:#000000"/>
					<stop  offset="0.0119" style="stop-color:#121212"/>
					<stop  offset="0.0472" style="stop-color:#444444"/>
					<stop  offset="0.0852" style="stop-color:#707070"/>
					<stop  offset="0.1251" style="stop-color:#979797"/>
					<stop  offset="0.1674" style="stop-color:#B7B7B7"/>
					<stop  offset="0.2128" style="stop-color:#D1D1D1"/>
					<stop  offset="0.2625" style="stop-color:#E6E6E6"/>
					<stop  offset="0.3187" style="stop-color:#F4F4F4"/>
					<stop  offset="0.3868" style="stop-color:#FCFCFC"/>
					<stop  offset="0.5" style="stop-color:#FFFFFF"/>
					<stop  offset="0.6132" style="stop-color:#FCFCFC"/>
					<stop  offset="0.6813" style="stop-color:#F4F4F4"/>
					<stop  offset="0.7375" style="stop-color:#E6E6E6"/>
					<stop  offset="0.7872" style="stop-color:#D1D1D1"/>
					<stop  offset="0.8326" style="stop-color:#B7B7B7"/>
					<stop  offset="0.8749" style="stop-color:#979797"/>
					<stop  offset="0.9148" style="stop-color:#707070"/>
					<stop  offset="0.9528" style="stop-color:#444444"/>
					<stop  offset="0.9881" style="stop-color:#121212"/>
					<stop  offset="1" style="stop-color:#000000"/>
				</linearGradient>
				<path style="fill:url(#SVGID_00000032624836884047398700000001297447322843845268_);" d="M156.898,514.837
					c0,5.612,4.556,10.163,10.163,10.163h0.01l0,0h101.622c5.618,0,10.164-4.551,10.164-10.163c0-0.005,0-0.01,0-0.015l5.081-71.129
					v-27.948H151.816v27.948L156.898,514.837z"/>
			</g>
			<g>
				<path style="fill:#212121;" d="M299.184,108.306c2.794,0,5.871,2.146,6.838,4.769l32.059,87.016
					c0.968,2.623-0.095,3.424-2.353,1.779l-47.68-34.676c-2.258-1.645-4.109-5.278-4.109-8.071v-50.816H299.184z"/>
				<path style="fill:#212121;" d="M136.571,108.306c-2.794,0-5.875,2.146-6.838,4.769l-32.058,87.016
					c-0.962,2.623,0.09,3.424,2.353,1.779l47.68-34.676c2.263-1.645,4.109-5.278,4.109-8.071v-50.816H136.571z"/>
				<path style="fill:#212121;" d="M299.184,443.693c2.794,0,5.871-2.144,6.838-4.769l32.059-87.018
					c0.968-2.62-0.095-3.425-2.353-1.777l-47.68,34.679c-2.258,1.643-4.109,5.275-4.109,8.069v50.815H299.184z"/>
				<path style="fill:#212121;" d="M136.571,443.693c-2.794,0-5.875-2.144-6.838-4.769l-32.058-87.018
					c-0.962-2.62,0.09-3.425,2.353-1.777l47.68,34.679c2.263,1.643,4.109,5.275,4.109,8.069v50.815H136.571z"/>
			</g>
			<g>
				<g style="opacity:0.4;">
					
						<linearGradient id="SVGID_00000159464684137700513100000017500069236492055736_" gradientUnits="userSpaceOnUse" x1="311.1884" y1="108.3062" x2="311.1884" y2="202.7247">
						<stop  offset="0" style="stop-color:#898989"/>
						<stop  offset="0.0223" style="stop-color:#A6A6A6"/>
						<stop  offset="0.0569" style="stop-color:#CCCCCC"/>
						<stop  offset="0.0889" style="stop-color:#E8E8E8"/>
						<stop  offset="0.1168" style="stop-color:#F9F9F9"/>
						<stop  offset="0.1378" style="stop-color:#FFFFFF"/>
						<stop  offset="0.1854" style="stop-color:#FDFDFD"/>
						<stop  offset="0.2025" style="stop-color:#F6F6F6"/>
						<stop  offset="0.2148" style="stop-color:#EBEBEB"/>
						<stop  offset="0.2247" style="stop-color:#DADADA"/>
						<stop  offset="0.2331" style="stop-color:#C4C4C4"/>
						<stop  offset="0.2406" style="stop-color:#A8A8A8"/>
						<stop  offset="0.2474" style="stop-color:#888888"/>
						<stop  offset="0.2536" style="stop-color:#626262"/>
						<stop  offset="0.2592" style="stop-color:#393939"/>
						<stop  offset="0.2638" style="stop-color:#111111"/>
						<stop  offset="1" style="stop-color:#FFFFFF"/>
					</linearGradient>
					<path style="fill:url(#SVGID_00000159464684137700513100000017500069236492055736_);" d="M299.184,108.306
						c2.794,0,5.871,2.146,6.838,4.769l32.059,87.016c0.968,2.623-0.095,3.424-2.353,1.779l-47.68-34.676
						c-2.258-1.645-4.109-5.278-4.109-8.071v-50.816H299.184z"/>
					
						<linearGradient id="SVGID_00000086658485384312061940000012450353239812642748_" gradientUnits="userSpaceOnUse" x1="124.5673" y1="108.3062" x2="124.5673" y2="202.7247">
						<stop  offset="0" style="stop-color:#898989"/>
						<stop  offset="0.0223" style="stop-color:#A6A6A6"/>
						<stop  offset="0.0569" style="stop-color:#CCCCCC"/>
						<stop  offset="0.0889" style="stop-color:#E8E8E8"/>
						<stop  offset="0.1168" style="stop-color:#F9F9F9"/>
						<stop  offset="0.1378" style="stop-color:#FFFFFF"/>
						<stop  offset="0.1854" style="stop-color:#FDFDFD"/>
						<stop  offset="0.2025" style="stop-color:#F6F6F6"/>
						<stop  offset="0.2148" style="stop-color:#EBEBEB"/>
						<stop  offset="0.2247" style="stop-color:#DADADA"/>
						<stop  offset="0.2331" style="stop-color:#C4C4C4"/>
						<stop  offset="0.2406" style="stop-color:#A8A8A8"/>
						<stop  offset="0.2474" style="stop-color:#888888"/>
						<stop  offset="0.2536" style="stop-color:#626262"/>
						<stop  offset="0.2592" style="stop-color:#393939"/>
						<stop  offset="0.2638" style="stop-color:#111111"/>
						<stop  offset="1" style="stop-color:#FFFFFF"/>
					</linearGradient>
					<path style="fill:url(#SVGID_00000086658485384312061940000012450353239812642748_);" d="M136.571,108.306
						c-2.794,0-5.875,2.146-6.838,4.769l-32.058,87.016c-0.962,2.623,0.09,3.424,2.353,1.779l47.68-34.676
						c2.263-1.645,4.109-5.278,4.109-8.071v-50.816H136.571z"/>
				</g>
				<g style="opacity:0.4;">
					
						<linearGradient id="SVGID_00000137115410956581558660000000346664339464909755_" gradientUnits="userSpaceOnUse" x1="311.1884" y1="443.6934" x2="311.1884" y2="349.2739">
						<stop  offset="0" style="stop-color:#898989"/>
						<stop  offset="0.0223" style="stop-color:#A6A6A6"/>
						<stop  offset="0.0569" style="stop-color:#CCCCCC"/>
						<stop  offset="0.0889" style="stop-color:#E8E8E8"/>
						<stop  offset="0.1168" style="stop-color:#F9F9F9"/>
						<stop  offset="0.1378" style="stop-color:#FFFFFF"/>
						<stop  offset="0.1854" style="stop-color:#FDFDFD"/>
						<stop  offset="0.2025" style="stop-color:#F6F6F6"/>
						<stop  offset="0.2148" style="stop-color:#EBEBEB"/>
						<stop  offset="0.2247" style="stop-color:#DADADA"/>
						<stop  offset="0.2331" style="stop-color:#C4C4C4"/>
						<stop  offset="0.2406" style="stop-color:#A8A8A8"/>
						<stop  offset="0.2474" style="stop-color:#888888"/>
						<stop  offset="0.2536" style="stop-color:#626262"/>
						<stop  offset="0.2592" style="stop-color:#393939"/>
						<stop  offset="0.2638" style="stop-color:#111111"/>
						<stop  offset="1" style="stop-color:#FFFFFF"/>
					</linearGradient>
					<path style="fill:url(#SVGID_00000137115410956581558660000000346664339464909755_);" d="M299.184,443.693
						c2.794,0,5.871-2.144,6.838-4.769l32.059-87.018c0.968-2.62-0.095-3.425-2.353-1.777l-47.68,34.679
						c-2.258,1.643-4.109,5.275-4.109,8.069v50.815H299.184z"/>
					
						<linearGradient id="SVGID_00000064315660904280702280000011733280469983764384_" gradientUnits="userSpaceOnUse" x1="124.5673" y1="443.6934" x2="124.5673" y2="349.2739">
						<stop  offset="0" style="stop-color:#898989"/>
						<stop  offset="0.0223" style="stop-color:#A6A6A6"/>
						<stop  offset="0.0569" style="stop-color:#CCCCCC"/>
						<stop  offset="0.0889" style="stop-color:#E8E8E8"/>
						<stop  offset="0.1168" style="stop-color:#F9F9F9"/>
						<stop  offset="0.1378" style="stop-color:#FFFFFF"/>
						<stop  offset="0.1854" style="stop-color:#FDFDFD"/>
						<stop  offset="0.2025" style="stop-color:#F6F6F6"/>
						<stop  offset="0.2148" style="stop-color:#EBEBEB"/>
						<stop  offset="0.2247" style="stop-color:#DADADA"/>
						<stop  offset="0.2331" style="stop-color:#C4C4C4"/>
						<stop  offset="0.2406" style="stop-color:#A8A8A8"/>
						<stop  offset="0.2474" style="stop-color:#888888"/>
						<stop  offset="0.2536" style="stop-color:#626262"/>
						<stop  offset="0.2592" style="stop-color:#393939"/>
						<stop  offset="0.2638" style="stop-color:#111111"/>
						<stop  offset="1" style="stop-color:#FFFFFF"/>
					</linearGradient>
					<path style="fill:url(#SVGID_00000064315660904280702280000011733280469983764384_);" d="M136.571,443.693
						c-2.794,0-5.875-2.144-6.838-4.769l-32.058-87.018c-0.962-2.62,0.09-3.425,2.353-1.777l47.68,34.679
						c2.263,1.643,4.109,5.275,4.109,8.069v50.815H136.571z"/>
				</g>
			</g>
			<path style="fill:#212121;" d="M385.571,288.704c0,5.612-3.791,10.163-8.476,10.163h-8.457c-4.684,0-8.476-4.551-8.476-10.163
				v-25.408c0-5.613,3.792-10.163,8.476-10.163h8.457c4.685,0,8.476,4.55,8.476,10.163V288.704z"/>
			
				<linearGradient id="SVGID_00000108296417421821457210000008743591724987845529_" gradientUnits="userSpaceOnUse" x1="372.8672" y1="253.1328" x2="372.8672" y2="298.8672">
				<stop  offset="0" style="stop-color:#3A3A3A"/>
				<stop  offset="0.0171" style="stop-color:#6B6B6B"/>
				<stop  offset="0.0377" style="stop-color:#A0A0A0"/>
				<stop  offset="0.0569" style="stop-color:#C9C9C9"/>
				<stop  offset="0.0744" style="stop-color:#E7E7E7"/>
				<stop  offset="0.0893" style="stop-color:#F9F9F9"/>
				<stop  offset="0.1" style="stop-color:#FFFFFF"/>
				<stop  offset="0.1253" style="stop-color:#FCFCFC"/>
				<stop  offset="0.1407" style="stop-color:#F4F4F4"/>
				<stop  offset="0.1533" style="stop-color:#E6E6E6"/>
				<stop  offset="0.1646" style="stop-color:#D1D1D1"/>
				<stop  offset="0.1748" style="stop-color:#B7B7B7"/>
				<stop  offset="0.1844" style="stop-color:#969696"/>
				<stop  offset="0.1934" style="stop-color:#707070"/>
				<stop  offset="0.202" style="stop-color:#434343"/>
				<stop  offset="0.21" style="stop-color:#121212"/>
				<stop  offset="0.2126" style="stop-color:#000000"/>
				<stop  offset="0.214" style="stop-color:#090909"/>
				<stop  offset="0.2215" style="stop-color:#373737"/>
				<stop  offset="0.23" style="stop-color:#626262"/>
				<stop  offset="0.2392" style="stop-color:#888888"/>
				<stop  offset="0.2491" style="stop-color:#A8A8A8"/>
				<stop  offset="0.2601" style="stop-color:#C4C4C4"/>
				<stop  offset="0.2726" style="stop-color:#DADADA"/>
				<stop  offset="0.2871" style="stop-color:#EBEBEB"/>
				<stop  offset="0.305" style="stop-color:#F6F6F6"/>
				<stop  offset="0.3302" style="stop-color:#FDFDFD"/>
				<stop  offset="0.4" style="stop-color:#FFFFFF"/>
				<stop  offset="0.4185" style="stop-color:#FCFCFC"/>
				<stop  offset="0.4318" style="stop-color:#F3F3F3"/>
				<stop  offset="0.4435" style="stop-color:#E3E3E3"/>
				<stop  offset="0.4542" style="stop-color:#CDCDCD"/>
				<stop  offset="0.4643" style="stop-color:#B0B0B0"/>
				<stop  offset="0.4739" style="stop-color:#8D8D8D"/>
				<stop  offset="0.4832" style="stop-color:#626262"/>
				<stop  offset="0.4919" style="stop-color:#333333"/>
				<stop  offset="0.5" style="stop-color:#000000"/>
				<stop  offset="0.5081" style="stop-color:#1B1B1B"/>
				<stop  offset="0.5257" style="stop-color:#505050"/>
				<stop  offset="0.5441" style="stop-color:#7F7F7F"/>
				<stop  offset="0.5627" style="stop-color:#A6A6A6"/>
				<stop  offset="0.5819" style="stop-color:#C6C6C6"/>
				<stop  offset="0.6015" style="stop-color:#DFDFDF"/>
				<stop  offset="0.622" style="stop-color:#F1F1F1"/>
				<stop  offset="0.6439" style="stop-color:#FCFCFC"/>
				<stop  offset="0.6693" style="stop-color:#FFFFFF"/>
				<stop  offset="0.7074" style="stop-color:#FDFDFD"/>
				<stop  offset="0.7212" style="stop-color:#F6F6F6"/>
				<stop  offset="0.731" style="stop-color:#EBEBEB"/>
				<stop  offset="0.7389" style="stop-color:#DADADA"/>
				<stop  offset="0.7457" style="stop-color:#C4C4C4"/>
				<stop  offset="0.7517" style="stop-color:#A8A8A8"/>
				<stop  offset="0.7571" style="stop-color:#888888"/>
				<stop  offset="0.7621" style="stop-color:#626262"/>
				<stop  offset="0.7668" style="stop-color:#373737"/>
				<stop  offset="0.7709" style="stop-color:#090909"/>
				<stop  offset="0.7717" style="stop-color:#000000"/>
				<stop  offset="0.7741" style="stop-color:#121212"/>
				<stop  offset="0.7813" style="stop-color:#434343"/>
				<stop  offset="0.7891" style="stop-color:#707070"/>
				<stop  offset="0.7973" style="stop-color:#979797"/>
				<stop  offset="0.806" style="stop-color:#B7B7B7"/>
				<stop  offset="0.8153" style="stop-color:#D1D1D1"/>
				<stop  offset="0.8255" style="stop-color:#E6E6E6"/>
				<stop  offset="0.837" style="stop-color:#F4F4F4"/>
				<stop  offset="0.8509" style="stop-color:#FCFCFC"/>
				<stop  offset="0.874" style="stop-color:#FFFFFF"/>
				<stop  offset="0.9533" style="stop-color:#848484"/>
				<stop  offset="1" style="stop-color:#3A3A3A"/>
			</linearGradient>
			<path style="opacity:0.6;fill:url(#SVGID_00000108296417421821457210000008743591724987845529_);" d="M385.571,288.704
				c0,5.612-3.791,10.163-8.476,10.163h-8.457c-4.684,0-8.476-4.551-8.476-10.163v-25.408c0-5.613,3.792-10.163,8.476-10.163h8.457
				c4.685,0,8.476,4.55,8.476,10.163V288.704z"/>
			<g>
				<path style="fill:#212121;" d="M360.163,248.051h20.327c0,0,0-2.54,0-7.622c0-5.082-40.653-30.49-45.735-50.816
					c-1.741-6.973,0,20.326,0,20.326L360.163,248.051z"/>
				<path style="fill:#212121;" d="M360.163,303.949h20.327c0,0,0,2.541,0,7.622c0,5.082-40.653,30.49-45.735,50.816
					c-1.741,6.973,0-20.326,0-20.326L360.163,303.949z"/>
			</g>
			<g style="opacity:0.6;">
				
					<linearGradient id="SVGID_00000006691837064540602870000006620352402584202919_" gradientUnits="userSpaceOnUse" x1="333.981" y1="218.2617" x2="380.4902" y2="218.2617">
					<stop  offset="0" style="stop-color:#898989"/>
					<stop  offset="4.046247e-04" style="stop-color:#8A8A8A"/>
					<stop  offset="0.0235" style="stop-color:#A9A9A9"/>
					<stop  offset="0.0492" style="stop-color:#C4C4C4"/>
					<stop  offset="0.0788" style="stop-color:#DADADA"/>
					<stop  offset="0.1133" style="stop-color:#EBEBEB"/>
					<stop  offset="0.1559" style="stop-color:#F6F6F6"/>
					<stop  offset="0.2158" style="stop-color:#FDFDFD"/>
					<stop  offset="0.3819" style="stop-color:#FFFFFF"/>
					<stop  offset="0.4259" style="stop-color:#FDFDFD"/>
					<stop  offset="0.4418" style="stop-color:#F6F6F6"/>
					<stop  offset="0.4531" style="stop-color:#EBEBEB"/>
					<stop  offset="0.4622" style="stop-color:#DADADA"/>
					<stop  offset="0.47" style="stop-color:#C4C4C4"/>
					<stop  offset="0.477" style="stop-color:#A8A8A8"/>
					<stop  offset="0.4832" style="stop-color:#888888"/>
					<stop  offset="0.489" style="stop-color:#626262"/>
					<stop  offset="0.4944" style="stop-color:#373737"/>
					<stop  offset="0.4991" style="stop-color:#090909"/>
					<stop  offset="0.5" style="stop-color:#000000"/>
					<stop  offset="0.7992" style="stop-color:#FFFFFF"/>
					<stop  offset="0.8866" style="stop-color:#FDFDFD"/>
					<stop  offset="0.918" style="stop-color:#F6F6F6"/>
					<stop  offset="0.9405" style="stop-color:#EBEBEB"/>
					<stop  offset="0.9586" style="stop-color:#DADADA"/>
					<stop  offset="0.9741" style="stop-color:#C4C4C4"/>
					<stop  offset="0.9876" style="stop-color:#A9A9A9"/>
					<stop  offset="0.9998" style="stop-color:#8A8A8A"/>
					<stop  offset="1" style="stop-color:#898989"/>
				</linearGradient>
				<path style="fill:url(#SVGID_00000006691837064540602870000006620352402584202919_);" d="M360.163,248.051h20.327
					c0,0,0-2.54,0-7.622c0-5.082-40.653-30.49-45.735-50.816c-1.741-6.973,0,20.326,0,20.326L360.163,248.051z"/>
				
					<linearGradient id="SVGID_00000077292687560868445730000002164361320958183096_" gradientUnits="userSpaceOnUse" x1="333.981" y1="333.7383" x2="380.4902" y2="333.7383">
					<stop  offset="0" style="stop-color:#898989"/>
					<stop  offset="4.046247e-04" style="stop-color:#8A8A8A"/>
					<stop  offset="0.0235" style="stop-color:#A9A9A9"/>
					<stop  offset="0.0492" style="stop-color:#C4C4C4"/>
					<stop  offset="0.0788" style="stop-color:#DADADA"/>
					<stop  offset="0.1133" style="stop-color:#EBEBEB"/>
					<stop  offset="0.1559" style="stop-color:#F6F6F6"/>
					<stop  offset="0.2158" style="stop-color:#FDFDFD"/>
					<stop  offset="0.3819" style="stop-color:#FFFFFF"/>
					<stop  offset="0.4259" style="stop-color:#FDFDFD"/>
					<stop  offset="0.4418" style="stop-color:#F6F6F6"/>
					<stop  offset="0.4531" style="stop-color:#EBEBEB"/>
					<stop  offset="0.4622" style="stop-color:#DADADA"/>
					<stop  offset="0.47" style="stop-color:#C4C4C4"/>
					<stop  offset="0.477" style="stop-color:#A8A8A8"/>
					<stop  offset="0.4832" style="stop-color:#888888"/>
					<stop  offset="0.489" style="stop-color:#626262"/>
					<stop  offset="0.4944" style="stop-color:#373737"/>
					<stop  offset="0.4991" style="stop-color:#090909"/>
					<stop  offset="0.5" style="stop-color:#000000"/>
					<stop  offset="0.7992" style="stop-color:#FFFFFF"/>
					<stop  offset="0.8866" style="stop-color:#FDFDFD"/>
					<stop  offset="0.918" style="stop-color:#F6F6F6"/>
					<stop  offset="0.9405" style="stop-color:#EBEBEB"/>
					<stop  offset="0.9586" style="stop-color:#DADADA"/>
					<stop  offset="0.9741" style="stop-color:#C4C4C4"/>
					<stop  offset="0.9876" style="stop-color:#A9A9A9"/>
					<stop  offset="0.9998" style="stop-color:#8A8A8A"/>
					<stop  offset="1" style="stop-color:#898989"/>
				</linearGradient>
				<path style="fill:url(#SVGID_00000077292687560868445730000002164361320958183096_);" d="M360.163,303.949h20.327
					c0,0,0,2.541,0,7.622c0,5.082-40.653,30.49-45.735,50.816c-1.741,6.973,0-20.326,0-20.326L360.163,303.949z"/>
			</g>
		</g>
		<g>
			<g>
				
					<ellipse transform="matrix(1 -0.0053 0.0053 1 -1.4465 1.148)" style="fill:#212121;" cx="217.878" cy="275.998" rx="147.367" ry="147.37"/>
				<path style="fill:#212121;" d="M187.388,148.956h60.979c2.794,0,4.467-2.201,3.712-4.893l-4.377-15.622
					c-0.754-2.692-3.657-4.893-6.451-4.893h-46.747c-2.799,0-5.697,2.201-6.451,4.893l-4.377,15.622
					C182.921,146.756,184.594,148.956,187.388,148.956z M122.289,178.841c0.69,2.71,3.241,3.779,5.657,2.382l52.812-30.49
					c2.422-1.397,2.769-4.139,0.769-6.094l-11.597-11.342c-2.005-1.953-5.618-2.407-8.04-1.01l-40.484,23.374
					c-2.421,1.399-3.831,4.754-3.136,7.463L122.289,178.841z M86.514,239.652c1.951,2.002,4.695,1.653,6.089-0.767l30.49-52.809
					c1.404-2.421,0.332-4.97-2.378-5.662L105,176.39c-2.71-0.688-6.069,0.725-7.464,3.146L74.163,220.02
					c-1.399,2.422-0.943,6.032,1.012,8.032L86.514,239.652z M90.827,306.495v-60.98c0.01-2.799-2.193-4.469-4.888-3.714
					l-15.622,4.372c-2.689,0.762-4.898,3.662-4.888,6.458v46.748c-0.005,2.793,2.198,5.691,4.888,6.446l15.622,4.377
					C88.628,310.966,90.827,309.289,90.827,306.495z M123.093,365.931l-30.49-52.806c-1.39-2.427-4.134-2.774-6.089-0.77
					L75.17,323.948c-1.945,2.005-2.407,5.622-1.002,8.039l23.373,40.484c1.395,2.422,4.749,3.831,7.459,3.142l15.716-4.025
					C123.426,370.903,124.493,368.353,123.093,365.931z M180.758,401.274l-52.812-30.485c-2.416-1.409-4.967-0.337-5.657,2.377
					l-4.029,15.712c-0.68,2.709,0.729,6.074,3.156,7.464l40.484,23.373c2.417,1.399,6.024,0.943,8.029-1.008l11.597-11.339
					C183.532,405.413,183.18,402.674,180.758,401.274z M248.367,403.051l-60.979,0.005c-2.799-0.015-4.471,2.188-3.712,4.888
					l4.367,15.622c0.769,2.685,3.667,4.894,6.466,4.884h46.747c2.794,0.01,5.688-2.193,6.451-4.884l4.372-15.622
					C252.839,405.249,251.166,403.051,248.367,403.051z M313.466,373.166c-0.689-2.714-3.235-3.781-5.657-2.382l-52.811,30.495
					c-2.432,1.385-2.774,4.134-0.769,6.089l11.592,11.345c2.01,1.939,5.623,2.401,8.045,0.997l40.484-23.374
					c2.421-1.395,3.826-4.749,3.141-7.458L313.466,373.166z M349.24,312.355c-1.955-2.005-4.694-1.657-6.089,0.765l-30.489,52.815
					c-1.41,2.417-0.338,4.968,2.377,5.652l15.711,4.03c2.715,0.68,6.074-0.725,7.469-3.156l23.374-40.484
					c1.399-2.412,0.938-6.024-1.013-8.029L349.24,312.355z M365.434,246.173l-15.617-4.372c-2.694-0.759-4.893,0.915-4.889,3.712
					v60.982c-0.01,2.799,2.194,4.471,4.889,3.707l15.617-4.367c2.694-0.765,4.902-3.663,4.893-6.462v-46.751
					C370.331,249.83,368.128,246.937,365.434,246.173z M312.662,186.071l30.489,52.811c1.39,2.429,4.139,2.774,6.089,0.769
					l11.34-11.59c1.95-2.012,2.412-5.627,1.008-8.047l-23.374-40.487c-1.395-2.419-4.749-3.824-7.464-3.136l-15.711,4.022
					C312.324,181.104,311.258,183.652,312.662,186.071z M254.997,150.729l52.811,30.49c2.417,1.409,4.973,0.332,5.657-2.378
					l4.024-15.709c0.686-2.717-0.725-6.079-3.151-7.471l-40.484-23.376c-2.416-1.397-6.024-0.938-8.034,1.015l-11.592,11.339
					C252.219,146.595,252.57,149.334,254.997,150.729z"/>
				
					<linearGradient id="SVGID_00000085233859466374689900000015744595903378730117_" gradientUnits="userSpaceOnUse" x1="217.8777" y1="128.6328" x2="217.8777" y2="423.3672">
					<stop  offset="0" style="stop-color:#898989"/>
					<stop  offset="4.046247e-04" style="stop-color:#8A8A8A"/>
					<stop  offset="0.0235" style="stop-color:#A9A9A9"/>
					<stop  offset="0.0492" style="stop-color:#C4C4C4"/>
					<stop  offset="0.0788" style="stop-color:#DADADA"/>
					<stop  offset="0.1133" style="stop-color:#EBEBEB"/>
					<stop  offset="0.1559" style="stop-color:#F6F6F6"/>
					<stop  offset="0.2158" style="stop-color:#FDFDFD"/>
					<stop  offset="0.3819" style="stop-color:#FFFFFF"/>
					<stop  offset="0.4259" style="stop-color:#FDFDFD"/>
					<stop  offset="0.4418" style="stop-color:#F6F6F6"/>
					<stop  offset="0.4531" style="stop-color:#EBEBEB"/>
					<stop  offset="0.4622" style="stop-color:#DADADA"/>
					<stop  offset="0.47" style="stop-color:#C4C4C4"/>
					<stop  offset="0.477" style="stop-color:#A8A8A8"/>
					<stop  offset="0.4832" style="stop-color:#888888"/>
					<stop  offset="0.489" style="stop-color:#626262"/>
					<stop  offset="0.4944" style="stop-color:#373737"/>
					<stop  offset="0.4991" style="stop-color:#090909"/>
					<stop  offset="0.5" style="stop-color:#000000"/>
					<stop  offset="0.7992" style="stop-color:#FFFFFF"/>
					<stop  offset="0.8866" style="stop-color:#FDFDFD"/>
					<stop  offset="0.918" style="stop-color:#F6F6F6"/>
					<stop  offset="0.9405" style="stop-color:#EBEBEB"/>
					<stop  offset="0.9586" style="stop-color:#DADADA"/>
					<stop  offset="0.9741" style="stop-color:#C4C4C4"/>
					<stop  offset="0.9876" style="stop-color:#A9A9A9"/>
					<stop  offset="0.9998" style="stop-color:#8A8A8A"/>
					<stop  offset="1" style="stop-color:#898989"/>
				</linearGradient>
				
					<circle style="opacity:0.6;fill:url(#SVGID_00000085233859466374689900000015744595903378730117_);" cx="217.878" cy="276" r="147.367"/>
				
					<ellipse transform="matrix(1 -0.0049 0.0049 1 -1.3621 1.0808)" style="fill:#212121;" cx="217.877" cy="275.998" rx="124.5" ry="124.502"/>
			</g>
			<g>
				<g>
					<path style="fill:#383838;" d="M217.877,398.595c-67.6,0-122.594-54.995-122.594-122.595s54.995-122.595,122.594-122.595
						c67.599,0,122.594,54.995,122.594,122.595S285.477,398.595,217.877,398.595z M217.877,154.676
						c-66.897,0-121.324,54.427-121.324,121.324c0,66.895,54.426,121.324,121.324,121.324c66.895,0,121.324-54.43,121.324-121.324
						C339.201,209.102,284.772,154.676,217.877,154.676z"/>
				</g>
				<g>
					<path style="fill:#383838;" d="M217.877,394.917c-65.57,0-118.914-53.342-118.914-118.917
						c0-65.57,53.345-118.915,118.914-118.915c65.575,0,118.917,53.345,118.917,118.915
						C336.795,341.575,283.452,394.917,217.877,394.917z M217.877,158.316c-64.89,0-117.684,52.794-117.684,117.684
						c0,64.89,52.794,117.686,117.684,117.686c64.89,0,117.687-52.797,117.687-117.686
						C335.564,211.11,282.768,158.316,217.877,158.316z"/>
				</g>
				<g>
					<path style="fill:#383838;" d="M217.877,391.349c-63.602,0-115.347-51.744-115.347-115.349
						c0-63.602,51.745-115.347,115.347-115.347c63.605,0,115.349,51.744,115.349,115.347
						C333.227,339.604,281.482,391.349,217.877,391.349z M217.877,161.85c-62.942,0-114.151,51.208-114.151,114.15
						c0,62.944,51.208,114.158,114.151,114.158c62.945,0,114.158-51.214,114.158-114.158
						C332.035,213.058,280.822,161.85,217.877,161.85z"/>
				</g>
				<g>
					<path style="fill:#383838;" d="M217.877,387.896c-61.694,0-111.885-50.201-111.885-111.896s50.191-111.885,111.885-111.885
						c61.694,0,111.895,50.191,111.895,111.885S279.571,387.896,217.877,387.896z M217.877,165.276
						c-61.054,0-110.724,49.67-110.724,110.724c0,61.059,49.67,110.734,110.724,110.734c61.059,0,110.734-49.676,110.734-110.734
						C328.611,214.946,278.936,165.276,217.877,165.276z"/>
				</g>
				<g>
					<path style="fill:#383838;" d="M217.877,384.54c-59.843,0-108.528-48.692-108.528-108.54
						c0-59.843,48.685-108.528,108.528-108.528c59.848,0,108.536,48.685,108.536,108.528
						C326.413,335.848,277.726,384.54,217.877,384.54z M217.877,168.599c-59.223,0-107.401,48.179-107.401,107.401
						c0,59.228,48.179,107.409,107.401,107.409c59.223,0,107.409-48.182,107.409-107.409
						C325.286,216.777,277.101,168.599,217.877,168.599z"/>
				</g>
				<g>
					<path style="fill:#383838;" d="M217.877,381.285c-58.046,0-105.27-47.233-105.27-105.285c0-58.047,47.224-105.27,105.27-105.27
						c58.052,0,105.28,47.224,105.28,105.27C323.157,334.052,275.93,381.285,217.877,381.285z M217.877,171.821
						c-57.444,0-104.178,46.735-104.178,104.179c0,57.451,46.734,104.193,104.178,104.193c57.447,0,104.189-46.742,104.189-104.193
						C322.066,218.556,275.324,171.821,217.877,171.821z"/>
				</g>
				<g>
					<path style="fill:#383838;" d="M217.877,378.124c-56.305,0-102.111-45.809-102.111-102.124
						c0-56.303,45.807-102.109,102.111-102.109c56.31,0,102.119,45.807,102.119,102.109
						C319.996,332.315,274.188,378.124,217.877,378.124z M217.877,174.948c-55.722,0-101.054,45.333-101.054,101.052
						c0,55.729,45.333,101.066,101.054,101.066c55.729,0,101.067-45.337,101.067-101.066
						C318.944,220.281,273.606,174.948,217.877,174.948z"/>
				</g>
				<g>
					<path style="fill:#383838;" d="M217.877,375.063c-54.615,0-99.049-44.44-99.049-99.063c0-54.613,44.434-99.045,99.049-99.045
						c54.623,0,99.062,44.432,99.062,99.045C316.939,330.623,272.5,375.063,217.877,375.063z M217.877,177.982
						c-54.049,0-98.022,43.971-98.022,98.018c0,54.057,43.973,98.035,98.022,98.035c54.052,0,98.03-43.979,98.03-98.035
						C315.907,221.953,271.93,177.982,217.877,177.982z"/>
				</g>
				<g>
					<path style="fill:#383838;" d="M217.877,372.095c-52.977,0-96.077-43.11-96.077-96.095c0-52.975,43.1-96.072,96.077-96.072
						c52.98,0,96.089,43.097,96.089,96.072C313.967,328.984,270.857,372.095,217.877,372.095z M217.877,180.925
						c-52.427,0-95.079,42.65-95.079,95.075c0,52.434,42.653,95.092,95.079,95.092c52.434,0,95.092-42.658,95.092-95.092
						C312.97,223.576,270.311,180.925,217.877,180.925z"/>
				</g>
				<g>
					<path style="fill:#383838;" d="M217.877,369.211c-51.387,0-93.194-41.814-93.194-93.211c0-51.385,41.807-93.189,93.194-93.189
						c51.392,0,93.207,41.804,93.207,93.189C311.084,327.397,269.27,369.211,217.877,369.211z M217.877,183.779
						c-50.854,0-92.226,41.37-92.226,92.221c0,50.866,41.372,92.243,92.226,92.243c50.861,0,92.239-41.377,92.239-92.243
						C310.116,225.149,268.738,183.779,217.877,183.779z"/>
				</g>
				<g>
					<path style="fill:#383838;" d="M217.877,366.417c-49.846,0-90.397-40.564-90.397-90.417c0-49.841,40.551-90.393,90.397-90.393
						c49.854,0,90.408,40.551,90.408,90.393C308.285,325.853,267.731,366.417,217.877,366.417z M217.877,186.545
						c-49.328,0-89.459,40.129-89.459,89.455c0,49.338,40.132,89.475,89.459,89.475c49.337,0,89.474-40.137,89.474-89.475
						C307.352,226.675,267.215,186.545,217.877,186.545z"/>
				</g>
				<g>
					<path style="fill:#383838;" d="M217.877,363.703c-48.35,0-87.686-39.344-87.686-87.703c0-48.345,39.335-87.678,87.686-87.678
						c48.355,0,87.698,39.334,87.698,87.678C305.575,324.359,266.232,363.703,217.877,363.703z M217.877,189.23
						c-47.849,0-86.777,38.926-86.777,86.77c0,47.858,38.929,86.795,86.777,86.795c47.859,0,86.79-38.936,86.79-86.795
						C304.667,228.156,265.736,189.23,217.877,189.23z"/>
				</g>
				<g>
					<path style="fill:#383838;" d="M217.877,361.078c-46.898,0-85.055-38.167-85.055-85.078c0-46.896,38.157-85.048,85.055-85.048
						c46.906,0,85.068,38.152,85.068,85.048C302.945,322.911,264.783,361.078,217.877,361.078z M217.877,191.835
						c-46.412,0-84.172,37.755-84.172,84.165c0,46.425,37.76,84.194,84.172,84.194c46.42,0,84.184-37.77,84.184-84.194
						C302.061,229.59,264.297,191.835,217.877,191.835z"/>
				</g>
				<g>
					<path style="fill:#383838;" d="M217.877,358.522c-45.492,0-82.502-37.016-82.502-82.522c0-45.489,37.01-82.495,82.502-82.495
						c45.497,0,82.517,37.005,82.517,82.495C300.395,321.506,263.374,358.522,217.877,358.522z M217.877,194.359
						c-45.02,0-81.648,36.624-81.648,81.641c0,45.03,36.628,81.668,81.648,81.668c45.03,0,81.664-36.638,81.664-81.668
						C299.541,230.982,262.907,194.359,217.877,194.359z"/>
				</g>
				<g>
					<path style="fill:#383838;" d="M217.877,356.046c-44.127,0-80.026-35.909-80.026-80.046c0-44.122,35.899-80.019,80.026-80.019
						c44.137,0,80.041,35.896,80.041,80.019C297.918,320.137,262.015,356.046,217.877,356.046z M217.877,196.811
						c-43.67,0-79.197,35.524-79.197,79.189c0,43.68,35.526,79.222,79.197,79.222c43.68,0,79.212-35.542,79.212-79.222
						C297.09,232.335,261.558,196.811,217.877,196.811z"/>
				</g>
				<g>
					<path style="fill:#383838;" d="M217.877,353.648c-42.802,0-77.624-34.832-77.624-77.648c0-42.797,34.822-77.617,77.624-77.617
						c42.807,0,77.639,34.82,77.639,77.617C295.517,318.816,260.685,353.648,217.877,353.648z M217.877,199.188
						c-42.358,0-76.82,34.457-76.82,76.813c0,42.37,34.462,76.845,76.82,76.845c42.371,0,76.835-34.475,76.835-76.845
						C294.713,233.645,260.248,199.188,217.877,199.188z"/>
				</g>
				<g>
					<path style="fill:#383838;" d="M217.877,351.321c-41.517,0-75.294-33.79-75.294-75.321c0-41.514,33.777-75.287,75.294-75.287
						c41.527,0,75.311,33.772,75.311,75.287C293.189,317.531,259.404,351.321,217.877,351.321z M217.877,201.493
						c-41.087,0-74.515,33.425-74.515,74.507c0,41.1,33.428,74.537,74.515,74.537c41.095,0,74.527-33.438,74.527-74.537
						C292.404,234.917,258.973,201.493,217.877,201.493z"/>
				</g>
				<g>
					<path style="fill:#383838;" d="M217.877,349.059c-40.271,0-73.036-32.772-73.036-73.059c0-40.269,32.765-73.029,73.036-73.029
						c40.281,0,73.048,32.76,73.048,73.029C290.926,316.286,258.158,349.059,217.877,349.059z M217.877,203.73
						c-39.854,0-72.277,32.42-72.277,72.27c0,39.869,32.423,72.304,72.277,72.304c39.859,0,72.295-32.435,72.295-72.304
						C290.172,236.151,257.736,203.73,217.877,203.73z"/>
				</g>
				<g>
					<path style="fill:#383838;" d="M217.877,346.87c-39.063,0-70.842-31.795-70.842-70.87c0-39.058,31.78-70.835,70.842-70.835
						c39.075,0,70.86,31.777,70.86,70.835C288.737,315.075,256.952,346.87,217.877,346.87z M217.877,205.899
						c-38.658,0-70.108,31.447-70.108,70.101c0,38.673,31.45,70.136,70.108,70.136c38.669,0,70.126-31.463,70.126-70.136
						C288.003,237.347,256.546,205.899,217.877,205.899z"/>
				</g>
				<g>
					<path style="fill:#383838;" d="M217.877,344.746c-37.891,0-68.719-30.842-68.719-68.746c0-37.887,30.828-68.711,68.719-68.711
						c37.904,0,68.736,30.825,68.736,68.711C286.613,313.904,255.781,344.746,217.877,344.746z M217.877,208.003
						c-37.499,0-68.004,30.502-68.004,67.997c0,37.517,30.504,68.031,68.004,68.031c37.507,0,68.021-30.515,68.021-68.031
						C285.898,238.505,255.385,208.003,217.877,208.003z"/>
				</g>
			</g>
			<g>
				<g>
					<g>
						<path style="fill:#FFF8E1;" d="M92.935,210.267c0.731-1.267,1.645-2.076,2.743-2.428c1.098-0.353,2.225-0.194,3.382,0.474
							c1.341,0.774,2.145,1.799,2.414,3.073c0.269,1.275-0.044,2.686-0.937,4.232c-0.811,1.404-1.673,2.377-2.589,2.917
							l-1.831-1.057c0.532-0.313,1.043-0.728,1.533-1.247c0.491-0.519,0.885-1.037,1.183-1.552c0.526-0.912,0.723-1.722,0.591-2.432
							c-0.132-0.711-0.591-1.293-1.375-1.746c-1.502-0.866-2.806-0.343-3.911,1.571c-0.156,0.269-0.32,0.617-0.494,1.044
							c-0.174,0.427-0.313,0.81-0.416,1.147l-1.053,0.595l-5.86-4.024l3.771-6.533l1.796,1.037l-2.744,4.753l2.947,2.08
							c0.083-0.22,0.184-0.488,0.305-0.804C92.513,211.052,92.693,210.685,92.935,210.267z"/>
						<path style="fill:#FFF8E1;" d="M102.757,196.867c2.184,1.26,3.604,2.547,4.258,3.861c0.655,1.314,0.565,2.693-0.269,4.137
							c-0.807,1.398-1.966,2.143-3.478,2.232c-1.512,0.09-3.324-0.475-5.439-1.695c-2.218-1.281-3.649-2.575-4.296-3.885
							c-0.646-1.309-0.555-2.683,0.276-4.121c0.811-1.403,1.975-2.149,3.493-2.235C98.818,195.074,100.637,195.643,102.757,196.867z
							 M99.01,203.356c1.714,0.989,3.038,1.52,3.975,1.59c0.938,0.071,1.629-0.28,2.076-1.054c0.447-0.773,0.401-1.554-0.137-2.342
							c-0.538-0.789-1.652-1.67-3.343-2.646c-1.685-0.973-3.008-1.498-3.968-1.575c-0.96-0.077-1.663,0.271-2.11,1.045
							c-0.446,0.773-0.402,1.55,0.133,2.329C96.173,201.483,97.297,202.367,99.01,203.356z"/>
					</g>
					<g>
						<path style="fill:#FFF8E1;" d="M101.111,343.8l0.978,1.692l2.742-1.583l1.137,1.969l-2.742,1.583l3.315,5.742l-1.556,0.898
							l-11.618-0.948l-1.137-1.969l8.183-4.725l-0.977-1.692L101.111,343.8z M101.549,348.429l-3.154,1.821
							c-1.123,0.648-2.06,1.151-2.809,1.507l0.04,0.068c0.471-0.058,1.075-0.069,1.813-0.037l6.339,0.5L101.549,348.429z"/>
						<path style="fill:#FFF8E1;" d="M92.026,336.243c2.183-1.261,4.008-1.846,5.473-1.757c1.466,0.091,2.615,0.858,3.449,2.302
							c0.807,1.397,0.871,2.773,0.194,4.128c-0.677,1.355-2.074,2.642-4.188,3.862c-2.218,1.28-4.055,1.873-5.512,1.778
							c-1.457-0.096-2.601-0.862-3.431-2.3c-0.811-1.404-0.874-2.785-0.191-4.142C88.504,338.757,89.906,337.467,92.026,336.243z
							 M95.773,342.732c1.713-0.989,2.835-1.873,3.365-2.647c0.53-0.776,0.572-1.552,0.125-2.324
							c-0.447-0.774-1.146-1.124-2.098-1.053c-0.951,0.071-2.272,0.596-3.963,1.572c-1.685,0.973-2.8,1.854-3.347,2.648
							c-0.546,0.793-0.597,1.576-0.15,2.351c0.446,0.772,1.141,1.123,2.084,1.049C92.731,344.253,94.06,343.722,95.773,342.732z"/>
					</g>
					<g>
						<path style="fill:#FFF8E1;" d="M219.298,419.301c0-0.92,0.268-1.686,0.804-2.298c0.536-0.612,1.29-1.024,2.263-1.235v-0.08
							c-1.164-0.146-2.038-0.508-2.62-1.086c-0.583-0.579-0.874-1.349-0.874-2.308c0-1.396,0.493-2.474,1.479-3.231
							c0.986-0.757,2.389-1.136,4.208-1.136c1.607,0,2.965,0.261,4.069,0.784v2.074c-0.615-0.305-1.267-0.54-1.955-0.705
							c-0.689-0.165-1.35-0.248-1.985-0.248c-1.124,0-1.965,0.209-2.521,0.625c-0.556,0.417-0.833,1.063-0.833,1.936
							c0,0.774,0.308,1.344,0.923,1.707c0.616,0.364,1.581,0.546,2.898,0.546h1.261v1.895h-1.281c-2.316,0-3.474,0.801-3.474,2.402
							c0,0.622,0.202,1.102,0.605,1.439c0.403,0.337,0.999,0.506,1.786,0.506c0.549,0,1.079-0.078,1.588-0.233
							c0.51-0.155,1.111-0.458,1.807-0.908l1.141,1.628c-1.33,0.979-2.875,1.469-4.635,1.469c-1.462,0-2.604-0.315-3.424-0.942
							C219.708,421.272,219.298,420.405,219.298,419.301z"/>
						<path style="fill:#FFF8E1;" d="M207.15,415.38c0-2.521,0.405-4.394,1.216-5.617c0.811-1.225,2.049-1.836,3.717-1.836
							c1.615,0,2.839,0.632,3.672,1.896c0.834,1.264,1.251,3.116,1.251,5.558c0,2.56-0.405,4.448-1.216,5.662
							c-0.811,1.215-2.046,1.821-3.707,1.821c-1.621,0-2.848-0.635-3.682-1.905C207.567,419.688,207.15,417.828,207.15,415.38z
							 M214.644,415.38c0-1.979-0.204-3.391-0.611-4.237c-0.407-0.848-1.057-1.271-1.95-1.271c-0.893,0-1.546,0.43-1.96,1.29
							c-0.414,0.86-0.621,2.267-0.621,4.218c0,1.945,0.207,3.353,0.621,4.224c0.414,0.87,1.067,1.305,1.96,1.305
							c0.894,0,1.544-0.427,1.95-1.28C214.44,418.774,214.644,417.358,214.644,415.38z"/>
					</g>
					<g>
						<path style="fill:#FFF8E1;" d="M332.595,341.521l4.918-8.518l1.53,0.884l1.387,5.121c0.429,1.523,0.756,2.559,0.986,3.108
							c0.229,0.548,0.482,0.998,0.761,1.351c0.277,0.351,0.624,0.647,1.037,0.885c0.566,0.327,1.112,0.415,1.635,0.263
							c0.524-0.153,0.959-0.53,1.307-1.132c0.278-0.481,0.458-0.998,0.54-1.55c0.082-0.553,0.062-1.258-0.063-2.116l1.963-0.323
							c0.186,1.04,0.214,1.961,0.079,2.762c-0.134,0.802-0.416,1.574-0.847,2.32c-0.675,1.168-1.522,1.929-2.537,2.281
							c-1.018,0.353-2.042,0.231-3.074-0.364c-0.567-0.327-1.047-0.74-1.44-1.238c-0.392-0.498-0.737-1.113-1.036-1.848
							c-0.298-0.733-0.626-1.857-0.982-3.368l-0.854-3.405l-0.086-0.049l-3.444,5.965L332.595,341.521z"/>
						<path style="fill:#FFF8E1;" d="M333.077,355.196c-2.183-1.261-3.603-2.548-4.257-3.861c-0.655-1.314-0.565-2.693,0.268-4.138
							c0.808-1.398,1.968-2.142,3.479-2.232c1.511-0.09,3.324,0.476,5.438,1.696c2.219,1.28,3.649,2.575,4.296,3.884
							c0.647,1.31,0.555,2.684-0.276,4.121c-0.81,1.404-1.975,2.149-3.491,2.236C337.016,356.989,335.197,356.42,333.077,355.196z
							 M336.823,348.707c-1.714-0.99-3.038-1.52-3.975-1.591c-0.937-0.071-1.628,0.28-2.075,1.054
							c-0.446,0.773-0.4,1.555,0.138,2.343c0.538,0.788,1.652,1.671,3.342,2.647c1.685,0.973,3.008,1.497,3.969,1.574
							c0.96,0.077,1.663-0.271,2.109-1.045c0.447-0.773,0.401-1.55-0.134-2.329C339.661,350.58,338.537,349.695,336.823,348.707z"/>
					</g>
					<g>
						<path style="fill:#FFF8E1;" d="M330.218,206.814l-1.166-2.021l8.114-4.684c0.968-0.559,1.749-0.979,2.343-1.261
							c-0.214-0.052-0.459-0.127-0.736-0.222c-0.276-0.097-1.175-0.436-2.695-1.018l0.695-1.753l5.039,2.018l0.973,1.686
							L330.218,206.814z"/>
						<path style="fill:#FFF8E1;" d="M343.796,215.822c-2.183,1.261-4.008,1.846-5.473,1.756c-1.466-0.091-2.615-0.857-3.449-2.302
							c-0.807-1.398-0.872-2.774-0.194-4.128c0.678-1.354,2.074-2.641,4.189-3.862c2.218-1.28,4.055-1.873,5.511-1.778
							c1.457,0.095,2.602,0.862,3.432,2.301c0.811,1.403,0.874,2.784,0.192,4.142C347.318,213.308,345.916,214.599,343.796,215.822z
							 M340.049,209.332c-1.713,0.989-2.835,1.873-3.365,2.648c-0.529,0.776-0.571,1.551-0.125,2.325
							c0.447,0.773,1.146,1.125,2.098,1.053c0.952-0.073,2.273-0.596,3.964-1.572c1.685-0.973,2.8-1.856,3.347-2.648
							c0.547-0.793,0.597-1.577,0.15-2.351c-0.446-0.773-1.142-1.124-2.084-1.049C343.091,207.812,341.763,208.343,340.049,209.332z
							"/>
					</g>
				</g>
				<g>
					<g>
						<polygon style="fill:#D32F2F;" points="217.877,146.416 205.173,131.171 230.582,131.171 						"/>
					</g>
					<g>
						<path style="fill:#D32F2F;" d="M153.682,154.639c1.399,2.432,0.566,5.538-1.866,6.942c-2.432,1.402-5.538,0.571-6.938-1.861
							c-1.399-2.432-0.576-5.538,1.855-6.94C149.166,151.376,152.273,152.21,153.682,154.639z"/>
					</g>
					<g>
						<path style="fill:#D32F2F;" d="M80.673,270.921c2.809,0,5.082,2.272,5.092,5.077c-0.01,2.811-2.283,5.084-5.081,5.084
							c-2.809-0.011-5.092-2.273-5.082-5.084C75.602,273.193,77.874,270.916,80.673,270.921z"/>
					</g>
					<g>
						<path style="fill:#D32F2F;" d="M144.879,392.282c1.399-2.432,4.506-3.266,6.938-1.866c2.432,1.409,3.265,4.516,1.866,6.938
							c-1.409,2.432-4.506,3.275-6.948,1.857C144.313,397.81,143.479,394.704,144.879,392.282z"/>
					</g>
					<g>
						<path style="fill:#D32F2F;" d="M282.083,397.363c-1.409-2.432-0.576-5.538,1.855-6.947c2.432-1.399,5.538-0.565,6.938,1.857
							c1.39,2.437,0.586,5.538-1.865,6.938C286.589,400.609,283.482,399.785,282.083,397.363z"/>
					</g>
					<g>
						<path style="fill:#D32F2F;" d="M355.082,281.082c-2.81,0-5.082-2.273-5.092-5.084c0.01-2.806,2.282-5.082,5.081-5.077
							c2.81,0.01,5.092,2.263,5.082,5.079C360.153,278.799,357.891,281.076,355.082,281.082z"/>
					</g>
					<g>
						<path style="fill:#D32F2F;" d="M290.876,159.718c-1.399,2.434-4.506,3.268-6.938,1.866c-2.432-1.41-3.265-4.516-1.866-6.938
							c1.42-2.427,4.507-3.275,6.948-1.861C291.442,154.185,292.285,157.284,290.876,159.718z"/>
					</g>
				</g>
			</g>
			<g>
				<path style="fill:#FFF3E0;" d="M134.547,184.355l6.625,7.354c0.308-0.273,0.625-0.536,0.933-0.814l-6.635-7.37L134.547,184.355z
					 M161.449,177l-4.958-8.585l-1.072,0.62l4.958,8.58C160.729,177.407,161.091,177.203,161.449,177z M217.262,162.043
					c0.208,0,0.412-0.015,0.615-0.015c0.213,0,0.417,0.015,0.626,0.015v-9.92h-1.241V162.043z M144.586,176.146l5.821,8.015
					c0.333-0.243,0.675-0.477,1.013-0.72l-5.831-8.024L144.586,176.146z M172.098,171.63l-4.025-9.042l-1.131,0.501l4.03,9.047
					C171.344,171.968,171.721,171.794,172.098,171.63z M194.792,164.375l-2.06-9.672l-1.211,0.258l2.06,9.692
					C193.988,164.564,194.385,164.455,194.792,164.375z M183.254,167.402l-3.057-9.404l-1.176,0.382l3.062,9.419
					C182.475,167.67,182.857,167.526,183.254,167.402z M126.06,208.502l-8.014-5.821l-0.725,1.007l8.019,5.826
					C125.584,209.177,125.813,208.835,126.06,208.502z M106.538,251.686l-9.667-2.054l-0.258,1.216l9.642,2.049
					C106.345,252.49,106.449,252.093,106.538,251.686z M125.431,193.575l7.364,6.63c0.278-0.308,0.541-0.63,0.814-0.933l-7.35-6.62
					L125.431,193.575z M104.613,263.462l-9.836-1.032l-0.129,1.231l9.826,1.032C104.514,264.281,104.568,263.874,104.613,263.462z
					 M109.689,240.183l-9.404-3.057l-0.382,1.181l9.389,3.047C109.416,240.962,109.555,240.575,109.689,240.183z M119.51,218.472
					l-8.575-4.947l-0.621,1.072l8.575,4.953C119.098,219.186,119.297,218.829,119.51,218.472z M114.026,229.067l-9.037-4.025
					l-0.501,1.137l9.027,4.02C113.684,229.816,113.858,229.444,114.026,229.067z M322.25,230.213l9.096-4.054l-0.506-1.131
					l-9.102,4.054C321.907,229.459,322.081,229.831,322.25,230.213z M316.88,219.559l8.64-4.987l-0.62-1.072l-8.64,4.987
					C316.468,218.844,316.672,219.201,316.88,219.559z M103.913,275.998c0-0.208,0.015-0.417,0.015-0.625h-9.89v1.233h9.89
					C103.923,276.407,103.913,276.198,103.913,275.998z M310.429,209.529l8.079-5.871l-0.729-1.002l-8.064,5.861
					C309.957,208.85,310.19,209.192,310.429,209.529z M326.473,241.364l9.459-3.072l-0.383-1.176l-9.474,3.077
					C326.205,240.585,326.349,240.972,326.473,241.364z M331.286,264.693l9.895-1.042l-0.124-1.231l-9.91,1.042
					C331.191,263.874,331.246,264.281,331.286,264.693z M329.505,252.902l9.722-2.064l-0.264-1.211l-9.736,2.069
					C329.311,252.098,329.42,252.495,329.505,252.902z M310.398,193.54l-0.828-0.918l-7.404,6.665
					c0.278,0.308,0.541,0.625,0.815,0.933L310.398,193.54z M263.682,171.641c0.382,0.164,0.754,0.337,1.132,0.506l4.054-9.107
					l-1.131-0.501L263.682,171.641z M252.536,167.412c0.392,0.124,0.778,0.268,1.171,0.398l3.076-9.474l-1.176-0.382
					L252.536,167.412z M229.197,162.594c0.412,0.04,0.823,0.094,1.23,0.139l1.042-9.915l-1.23-0.129L229.197,162.594z
					 M240.998,164.38c0.407,0.084,0.804,0.188,1.206,0.278l2.069-9.747l-1.211-0.258L240.998,164.38z M274.331,177.01
					c0.362,0.204,0.72,0.407,1.077,0.615l4.987-8.635l-1.072-0.62L274.331,177.01z M293.67,190.91
					c0.308,0.272,0.626,0.536,0.934,0.813l6.664-7.404l-0.918-0.829L293.67,190.91z M284.365,183.456
					c0.333,0.243,0.675,0.477,1.008,0.72l5.865-8.069l-1.002-0.729L284.365,183.456z M206.588,162.589l-1.037-9.851l-1.231,0.129
					l1.037,9.86C205.764,162.683,206.171,162.633,206.588,162.589z M284.36,368.541l5.841,8.05l1.003-0.734l-5.836-8.03
					C285.035,368.065,284.693,368.303,284.36,368.541z M274.326,374.992l4.963,8.605l1.071-0.615l-4.962-8.605
					C275.041,374.586,274.684,374.794,274.326,374.992z M293.675,361.088l6.655,7.394l0.923-0.833l-6.645-7.385
					C294.306,360.542,293.982,360.81,293.675,361.088z M263.677,380.362l4.034,9.061l1.127-0.507l-4.035-9.061
					C264.426,380.024,264.054,380.193,263.677,380.362z M240.979,387.617l2.059,9.687l1.211-0.258l-2.064-9.706
					C241.782,387.429,241.385,387.538,240.979,387.617z M302.166,352.711l7.39,6.65l0.828-0.923l-7.403-6.66
					C302.707,352.086,302.444,352.403,302.166,352.711z M252.516,384.59l3.063,9.419l1.176-0.387l-3.062-9.429
					C253.295,384.322,252.908,384.461,252.516,384.59z M316.265,333.506l8.615,4.973l0.62-1.072l-8.615-4.983
					C316.677,332.781,316.473,333.148,316.265,333.506z M331.147,288.516l9.91,1.042l0.124-1.23l-9.895-1.042
					C331.246,287.701,331.191,288.108,331.147,288.516z M331.832,275.372c0,0.208,0.015,0.417,0.015,0.625
					c0,0.201-0.015,0.41-0.015,0.608h9.965v-1.233H331.832z M329.227,300.287l9.731,2.063l0.259-1.21l-9.712-2.064
					C329.42,299.482,329.316,299.88,329.227,300.287z M326.08,311.79l9.454,3.076l0.382-1.181l-9.439-3.067
					C326.349,311.016,326.21,311.402,326.08,311.79z M229.178,389.403l1.037,9.857l1.23-0.13l-1.037-9.865
					C229.996,389.315,229.589,389.364,229.178,389.403z M309.714,343.471l8.045,5.846l0.729-1.002l-8.055-5.857
					C310.195,342.796,309.962,343.143,309.714,343.471z M321.743,322.906l9.087,4.039l0.501-1.132l-9.077-4.039
					C322.086,322.151,321.917,322.528,321.743,322.906z M155.434,382.942l1.072,0.615l4.943-8.556
					c-0.357-0.208-0.715-0.406-1.072-0.615L155.434,382.942z M125.336,342.478l-8.004,5.815l0.729,1.003l7.995-5.807
					C125.808,343.153,125.574,342.815,125.336,342.478z M125.44,358.408l0.829,0.923l7.335-6.61
					c-0.277-0.308-0.54-0.625-0.814-0.933L125.44,358.408z M118.885,332.443l-8.56,4.943l0.62,1.071l8.555-4.942
					C119.292,333.158,119.088,332.801,118.885,332.443z M106.255,299.086l-9.637,2.055l0.258,1.21l9.657-2.054
					C106.444,299.89,106.34,299.492,106.255,299.086z M134.561,367.618l0.923,0.834l6.62-7.354c-0.308-0.269-0.63-0.536-0.933-0.814
					L134.561,367.618z M113.511,321.784l-9.012,4.02l0.506,1.132l9.017-4.02C113.853,322.539,113.679,322.161,113.511,321.784z
					 M109.287,310.629l-9.374,3.047l0.382,1.181l9.389-3.047C109.555,311.412,109.412,311.025,109.287,310.629z M191.541,397.006
					l1.211,0.259l2.05-9.638c-0.407-0.079-0.804-0.189-1.206-0.277L191.541,397.006z M179.036,393.592l1.176,0.377l3.047-9.369
					c-0.392-0.129-0.779-0.268-1.171-0.397L179.036,393.592z M144.596,375.826l1.002,0.734l5.816-8.01
					c-0.332-0.238-0.675-0.476-1.012-0.714L144.596,375.826z M204.34,399.101l1.235,0.129l1.027-9.826
					c-0.407-0.039-0.819-0.089-1.225-0.129L204.34,399.101z M217.262,389.949v9.926h1.241v-9.926c-0.209,0-0.412,0.021-0.626,0.021
					C217.674,389.97,217.471,389.949,217.262,389.949z M104.474,287.285l-9.816,1.032l0.129,1.23l9.82-1.032
					C104.563,288.108,104.514,287.701,104.474,287.285z M166.957,388.878l1.131,0.506l4.015-9.012
					c-0.377-0.169-0.754-0.338-1.126-0.517L166.957,388.878z"/>
				<path style="fill:#FFF3E0;" d="M164.997,180.672l-7.434-12.878l-3.216,1.856l7.429,12.873
					C162.838,181.883,163.915,181.273,164.997,180.672z M109.694,215.668l12.868,7.429c0.605-1.082,1.216-2.158,1.856-3.221
					l-12.863-7.429L109.694,215.668z M216.026,167.03c0.621-0.01,1.231-0.045,1.851-0.045c0.626,0,1.241,0.035,1.866,0.045v-14.907
					h-3.717V167.03z M270.783,180.682c1.082,0.605,2.158,1.216,3.221,1.851l7.464-12.922l-3.221-1.861L270.783,180.682z
					 M94.038,274.132v3.714h14.877c-0.01-0.615-0.049-1.23-0.049-1.848c0-0.625,0.04-1.241,0.049-1.866H94.038z M311.352,219.891
					c0.636,1.062,1.251,2.139,1.852,3.221l12.938-7.469l-1.861-3.215L311.352,219.891z M326.845,274.132
					c0.01,0.625,0.05,1.24,0.05,1.866c0,0.618-0.04,1.233-0.05,1.848h14.952v-3.714H326.845z M311.356,332.097l12.903,7.453
					l1.86-3.226l-12.912-7.453C312.607,329.963,311.992,331.034,311.356,332.097z M109.704,336.305l1.861,3.226l12.848-7.414
					c-0.64-1.062-1.25-2.144-1.856-3.226L109.704,336.305z M270.773,371.32l7.443,12.893l3.216-1.855l-7.439-12.893
					C272.932,370.109,271.855,370.715,270.773,371.32z M216.026,384.967v14.908h3.717v-14.908c-0.625,0.011-1.24,0.04-1.866,0.04
					C217.257,385.007,216.647,384.978,216.026,384.967z M154.362,382.317l3.215,1.866l7.424-12.853
					c-1.087-0.605-2.164-1.221-3.221-1.855L154.362,382.317z"/>
				<path style="fill:#D32F2F;" d="M217.877,400.5c-68.652,0-124.5-55.858-124.5-124.507c0-68.647,55.848-124.495,124.5-124.495
					c68.647,0,124.5,55.848,124.5,124.495C342.377,344.642,286.524,400.5,217.877,400.5z M217.877,152.733
					c-67.967,0-123.259,55.297-123.259,123.259c0,67.974,55.292,123.267,123.259,123.267c67.967,0,123.259-55.293,123.259-123.267
					C341.137,208.031,285.845,152.733,217.877,152.733z"/>
				<path style="fill:#212121;" d="M217.877,186.186c-19.468,0-35.303,15.84-35.303,35.309c0,19.463,15.836,35.303,35.303,35.303
					c19.468,0,35.308-15.84,35.308-35.303C253.186,202.026,237.346,186.186,217.877,186.186z"/>
				<path style="fill:#212121;" d="M217.877,295.195c-19.468,0-35.303,15.84-35.303,35.313c0,19.463,15.836,35.303,35.303,35.303
					c19.468,0,35.308-15.84,35.308-35.303C253.186,311.035,237.346,295.195,217.877,295.195z"/>
				<g>
					<g>
						<g>
							<path style="fill:#FFF3E0;" d="M128.125,274.727c0,6.851-2.739,10.285-8.223,10.285c-0.958,0-1.712-0.079-2.278-0.248v-1.717
								c0.66,0.219,1.409,0.317,2.253,0.317c1.98,0,3.474-0.596,4.491-1.786c1.012-1.172,1.563-2.998,1.652-5.449h-0.154
								c-0.447,0.665-1.052,1.171-1.801,1.519c-0.754,0.348-1.598,0.526-2.541,0.526c-1.603,0-2.873-0.467-3.811-1.39
								c-0.943-0.931-1.415-2.226-1.415-3.888c0-1.816,0.526-3.255,1.578-4.313c1.052-1.052,2.442-1.578,4.154-1.578
								c1.23,0,2.308,0.303,3.23,0.913c0.918,0.61,1.623,1.503,2.119,2.67C127.877,271.765,128.125,273.139,128.125,274.727z
								 M122.031,268.703c-1.181,0-2.089,0.372-2.734,1.107c-0.645,0.729-0.968,1.752-0.968,3.067c0,1.146,0.298,2.045,0.894,2.709
								c0.595,0.653,1.493,0.99,2.709,0.99c0.75,0,1.449-0.148,2.075-0.446c0.635-0.295,1.131-0.697,1.489-1.213
								c0.372-0.501,0.551-1.037,0.551-1.598c0-0.844-0.169-1.613-0.506-2.328c-0.342-0.705-0.814-1.266-1.42-1.672
								C123.51,268.906,122.82,268.703,122.031,268.703z"/>
						</g>
					</g>
					<g>
						<g>
							<path style="fill:#FFF3E0;" d="M135.619,238.48h-2.01V226c0-1.042,0.039-2.025,0.104-2.953
								c-0.174,0.168-0.367,0.347-0.581,0.531c-0.218,0.184-1.196,0.963-2.953,2.333l-1.092-1.36l4.799-3.588h1.732V238.48z"/>
						</g>
						<g>
							<path style="fill:#FFF3E0;" d="M154.506,229.702c0,3.022-0.491,5.285-1.479,6.779c-0.988,1.489-2.496,2.233-4.526,2.233
								c-1.951,0-3.434-0.759-4.452-2.292c-1.012-1.529-1.518-3.771-1.518-6.719c0-3.052,0.491-5.315,1.469-6.799
								c0.988-1.474,2.486-2.208,4.501-2.208c1.96,0,3.459,0.764,4.476,2.307C153.995,224.546,154.506,226.779,154.506,229.702z
								 M144.616,229.702c0,2.546,0.303,4.392,0.923,5.563c0.621,1.156,1.608,1.742,2.963,1.742c1.37,0,2.362-0.585,2.978-1.767
								c0.615-1.181,0.923-3.027,0.923-5.538c0-2.516-0.308-4.362-0.923-5.533c-0.616-1.167-1.608-1.752-2.978-1.752
								c-1.355,0-2.342,0.576-2.963,1.732C144.919,225.3,144.616,227.151,144.616,229.702z"/>
						</g>
					</g>
					<g>
						<g>
							<path style="fill:#FFF3E0;" d="M135.038,313.309c1.647,0,2.957,0.367,3.925,1.111c0.962,0.744,1.449,1.767,1.449,3.077
								c0,0.863-0.277,1.647-0.833,2.361c-0.551,0.715-1.439,1.36-2.65,1.936c1.469,0.685,2.516,1.399,3.136,2.134
								c0.621,0.755,0.923,1.618,0.923,2.601c0,1.459-0.526,2.61-1.568,3.483c-1.052,0.864-2.486,1.301-4.313,1.301
								c-1.931,0-3.414-0.417-4.456-1.23c-1.038-0.814-1.564-1.976-1.564-3.484c0-2.005,1.266-3.563,3.792-4.675
								c-1.137-0.625-1.956-1.3-2.452-2.025c-0.496-0.725-0.744-1.528-0.744-2.422c0-1.26,0.486-2.282,1.459-3.037
								C132.11,313.685,133.405,313.309,135.038,313.309z M131.123,326.657c0,0.953,0.342,1.697,1.032,2.233
								c0.69,0.536,1.658,0.804,2.903,0.804c1.231,0,2.188-0.277,2.878-0.844c0.68-0.556,1.027-1.319,1.027-2.292
								c0-0.774-0.323-1.469-0.968-2.074c-0.645-0.596-1.767-1.182-3.37-1.757c-1.231,0.516-2.124,1.081-2.68,1.696
								C131.4,325.05,131.123,325.794,131.123,326.657z M135.013,314.926c-1.037,0-1.841,0.238-2.432,0.715
								c-0.59,0.486-0.878,1.121-0.878,1.916c0,0.734,0.238,1.369,0.73,1.895c0.491,0.525,1.39,1.062,2.705,1.578
								c1.176-0.477,2.01-0.983,2.506-1.539c0.491-0.556,0.739-1.2,0.739-1.935c0-0.805-0.303-1.449-0.898-1.916
								C136.884,315.164,136.06,314.926,135.013,314.926z"/>
						</g>
					</g>
					<g>
						<g>
							<path style="fill:#FFF3E0;" d="M170.55,204.581h-2.005v-12.48c0-1.032,0.03-2.015,0.099-2.948
								c-0.173,0.174-0.367,0.347-0.585,0.531c-0.208,0.184-1.196,0.963-2.948,2.337l-1.087-1.37l4.794-3.578h1.732V204.581z"/>
						</g>
						<g>
							<path style="fill:#FFF3E0;" d="M185.055,204.581h-2.01v-12.48c0-1.032,0.035-2.015,0.099-2.948
								c-0.173,0.174-0.367,0.347-0.581,0.531c-0.213,0.184-1.196,0.963-2.948,2.337l-1.087-1.37l4.789-3.578h1.737V204.581z"/>
						</g>
					</g>
					<g>
						<g>
							<path style="fill:#FFF3E0;" d="M166.386,364.939l7.503-15.672h-9.866v-1.836h12.044v1.598l-7.404,15.91H166.386z"/>
						</g>
					</g>
					<g>
						<g>
							<path style="fill:#FFF3E0;" d="M265.488,354.239c1.905,0,3.404,0.456,4.496,1.37c1.092,0.923,1.643,2.163,1.643,3.751
								c0,1.816-0.596,3.235-1.787,4.278c-1.19,1.021-2.838,1.528-4.933,1.528c-2.044,0-3.603-0.308-4.675-0.934v-1.915
								c0.581,0.357,1.296,0.635,2.159,0.844c0.858,0.198,1.702,0.298,2.541,0.298c1.448,0,2.575-0.328,3.389-0.993
								c0.8-0.665,1.201-1.617,1.201-2.878c0-2.441-1.548-3.662-4.645-3.662c-0.784,0-1.826,0.119-3.147,0.357l-1.067-0.675
								l0.685-8.189h9.007v1.836h-7.255l-0.452,5.261C263.598,354.328,264.545,354.239,265.488,354.239z"/>
						</g>
					</g>
					<g>
						<g>
							<path style="fill:#FFF3E0;" d="M307.615,327.015h-2.689v4.029h-1.966v-4.029h-8.809v-1.736l8.591-11.841h2.184v11.771h2.689
								V327.015z M302.96,325.208v-5.825c0-1.142,0.04-2.432,0.124-3.871h-0.1c-0.401,0.774-0.769,1.409-1.121,1.915l-5.662,7.781
								H302.96z"/>
						</g>
					</g>
					<g>
						<g>
							<path style="fill:#FFF3E0;" d="M306.746,238.461h-11.899v-1.707l4.764-4.64c1.464-1.415,2.412-2.432,2.873-3.042
								c0.467-0.605,0.814-1.196,1.048-1.771c0.232-0.576,0.342-1.196,0.342-1.856c0-0.933-0.293-1.678-0.873-2.224
								c-0.591-0.546-1.404-0.814-2.447-0.814c-0.749,0-1.459,0.114-2.133,0.352c-0.676,0.243-1.42,0.675-2.248,1.305l-1.092-1.35
								c1.672-1.345,3.483-2.015,5.448-2.015c1.707,0,3.042,0.422,4.01,1.26c0.963,0.844,1.444,1.98,1.444,3.399
								c0,1.112-0.322,2.203-0.968,3.295c-0.646,1.082-1.85,2.461-3.618,4.119l-3.965,3.747v0.099h9.315V238.461z"/>
						</g>
					</g>
					<g>
						<g>
							<path style="fill:#FFF3E0;" d="M267.413,204.581h-2.005v-12.48c0-1.032,0.04-2.015,0.104-2.948
								c-0.179,0.174-0.367,0.347-0.58,0.531c-0.219,0.184-1.196,0.963-2.953,2.337l-1.092-1.37l4.794-3.578h1.732V204.581z"/>
						</g>
					</g>
				</g>
				<g>
					<path style="fill:#FFF3E0;" d="M203.193,299.065l2.362,5.32c0.377-0.179,0.739-0.377,1.116-0.536l-2.347-5.28L203.193,299.065z
						 M210.041,296.703l1.211,5.688c0.402-0.089,0.799-0.189,1.206-0.268l-1.206-5.678L210.041,296.703z M217.242,301.637
						c0.209-0.01,0.407-0.03,0.621-0.03c0.208,0,0.407,0.021,0.615,0.03v-5.816h-1.236V301.637z M190.599,320.98l-5.523-1.797
						l-0.382,1.182l5.503,1.786C190.315,321.755,190.459,321.367,190.599,320.98z M193.179,315.522l-5.037-2.908l-0.621,1.072
						l5.012,2.899C192.732,316.227,192.96,315.879,193.179,315.522z M191.68,307.75l4.317,3.891
						c0.273-0.317,0.551-0.615,0.834-0.923l-4.323-3.891L191.68,307.75z M244.069,307.73l-0.828-0.923l-4.348,3.92
						c0.283,0.298,0.561,0.596,0.829,0.913L244.069,307.73z M245.528,322.161l5.534-1.796l-0.383-1.182l-5.553,1.807
						C245.261,321.377,245.41,321.765,245.528,322.161z M246.641,328.087l5.801-0.605l-0.124-1.23l-5.812,0.604
						C246.561,327.263,246.605,327.68,246.641,328.087z M223.257,302.123c0.412,0.079,0.809,0.179,1.211,0.268l1.216-5.727
						l-1.211-0.258L223.257,302.123z M243.186,316.584l5.037-2.908l-0.615-1.072l-5.067,2.928
						C242.76,315.879,242.988,316.227,243.186,316.584z M229.048,303.85c0.383,0.159,0.745,0.357,1.117,0.536l2.387-5.35
						l-1.132-0.506L229.048,303.85z M189.214,326.855l-5.771-0.604l-0.129,1.23l5.767,0.605
						C189.115,327.67,189.159,327.263,189.214,326.855z M234.328,306.768c0.338,0.238,0.66,0.496,0.992,0.744l3.444-4.744
						l-1.002-0.725L234.328,306.768z M196.98,302.798l3.419,4.714c0.332-0.248,0.655-0.506,0.993-0.744l-3.41-4.694L196.98,302.798z
						 M223.262,358.884l1.206,5.678l1.211-0.259l-1.206-5.686C224.066,358.716,223.669,358.805,223.262,358.884z M238.898,350.279
						l4.328,3.891l0.828-0.913l-4.322-3.9C239.465,349.674,239.182,349.972,238.898,350.279z M229.053,357.157l2.353,5.28
						l1.132-0.496l-2.367-5.32C229.798,356.8,229.436,356.998,229.053,357.157z M234.338,354.229l3.409,4.694l1.003-0.725
						l-3.419-4.714C235.003,353.743,234.676,353.991,234.338,354.229z M246.512,334.121l5.801,0.615l0.129-1.23l-5.801-0.615
						C246.605,333.308,246.561,333.714,246.512,334.121z M189.08,332.891l-5.767,0.605l0.129,1.23l5.767-0.605
						C189.159,333.714,189.115,333.297,189.08,332.891z M245.127,340.007l5.543,1.807l0.382-1.182l-5.523-1.796
						C245.41,339.232,245.266,339.619,245.127,340.007z M242.551,345.466l5.053,2.918l0.62-1.072l-5.027-2.898
						C242.998,344.771,242.765,345.118,242.551,345.466z M192.519,344.403l-5.002,2.889l0.621,1.071l5.027-2.898
						C192.951,345.108,192.723,344.771,192.519,344.403z M191.675,353.236l0.829,0.914l4.313-3.881
						c-0.283-0.298-0.565-0.605-0.833-0.913L191.675,353.236z M190.186,338.825l-5.498,1.787l0.387,1.171l5.508-1.786
						C190.45,339.609,190.306,339.223,190.186,338.825z M196.976,358.18l1.002,0.725l3.4-4.675
						c-0.342-0.238-0.665-0.496-0.992-0.744L196.976,358.18z M217.242,359.381v5.806h1.236v-5.806c-0.208,0-0.407,0.029-0.615,0.029
						C217.649,359.41,217.451,359.381,217.242,359.381z M210.037,364.283l1.216,0.258l1.201-5.657
						c-0.407-0.079-0.809-0.179-1.211-0.268L210.037,364.283z M203.188,361.911l1.131,0.507l2.342-5.261
						c-0.382-0.159-0.744-0.357-1.116-0.536L203.188,361.911z"/>
					<path style="fill:#FFF3E0;" d="M217.877,365.811c-19.468,0-35.303-15.84-35.303-35.303c0-19.474,15.836-35.313,35.303-35.313
						c19.468,0,35.308,15.84,35.308,35.313C253.186,349.972,237.346,365.811,217.877,365.811z M217.877,296.435
						c-18.783,0-34.063,15.285-34.063,34.073c0,18.778,15.28,34.063,34.063,34.063c18.789,0,34.068-15.284,34.068-34.063
						C251.945,311.721,236.666,296.435,217.877,296.435z"/>
					<path style="fill:#D32F2F;" d="M217.877,325.546c-0.506,0-0.982,0.1-1.444,0.238l-20.446-18.938l-2.63-0.863l0.878,2.62
						l18.932,20.446c-0.144,0.466-0.243,0.942-0.243,1.459c0,2.73,2.218,4.952,4.953,4.952c2.745,0,4.958-2.223,4.958-4.952
						C222.835,327.759,220.622,325.546,217.877,325.546z M217.877,332.979c-1.365,0-2.476-1.111-2.476-2.471
						c0-1.37,1.111-2.481,2.476-2.481c1.365,0,2.482,1.111,2.482,2.481C220.359,331.868,219.242,332.979,217.877,332.979z"/>
				</g>
				<g>
					<g>
						<path style="fill:#FFF8E1;" d="M215.466,314.112h-1.459v-5.855c0-0.7,0.017-1.251,0.05-1.663
							c-0.095,0.1-0.211,0.209-0.35,0.328c-0.139,0.124-0.603,0.501-1.392,1.141l-0.732-0.923l2.668-2.099h1.216V314.112z"/>
						<path style="fill:#FFF8E1;" d="M224.582,314.112h-6.146v-1.102l2.34-2.353c0.69-0.71,1.146-1.211,1.372-1.509
							c0.226-0.292,0.39-0.57,0.494-0.833c0.104-0.259,0.154-0.536,0.154-0.834c0-0.412-0.122-0.734-0.367-0.968
							c-0.246-0.238-0.585-0.352-1.022-0.352c-0.347,0-0.682,0.06-1.007,0.188c-0.325,0.129-0.7,0.362-1.126,0.695l-0.787-0.963
							c0.504-0.427,0.995-0.725,1.472-0.903c0.474-0.179,0.98-0.268,1.519-0.268c0.843,0,1.518,0.218,2.029,0.664
							c0.506,0.438,0.762,1.033,0.762,1.777c0,0.406-0.074,0.794-0.221,1.161c-0.146,0.367-0.372,0.749-0.675,1.142
							c-0.305,0.387-0.809,0.918-1.519,1.583l-1.573,1.528v0.059h4.303V314.112z"/>
					</g>
					<g>
						<path style="fill:#FFF8E1;" d="M214.835,353.44c0-3.548,1.447-5.32,4.335-5.32c0.457,0,0.841,0.035,1.156,0.105v1.216
							c-0.315-0.095-0.68-0.134-1.092-0.134c-0.973,0-1.702,0.258-2.191,0.779c-0.489,0.521-0.752,1.354-0.794,2.506h0.074
							c0.193-0.338,0.466-0.596,0.819-0.779c0.352-0.184,0.764-0.272,1.241-0.272c0.824,0,1.464,0.248,1.923,0.754
							c0.459,0.506,0.69,1.191,0.69,2.055c0,0.952-0.268,1.702-0.799,2.253c-0.531,0.556-1.255,0.828-2.173,0.828
							c-0.65,0-1.213-0.153-1.692-0.471c-0.481-0.308-0.851-0.765-1.109-1.36C214.964,354.998,214.835,354.279,214.835,353.44z
							 M217.999,356.225c0.501,0,0.886-0.159,1.156-0.481c0.271-0.323,0.407-0.784,0.407-1.385c0-0.521-0.127-0.928-0.382-1.226
							c-0.253-0.298-0.635-0.447-1.144-0.447c-0.315,0-0.602,0.065-0.868,0.204c-0.266,0.129-0.474,0.317-0.628,0.546
							c-0.151,0.238-0.229,0.477-0.229,0.72c0,0.58,0.159,1.076,0.474,1.474C217.104,356.025,217.508,356.225,217.999,356.225z"/>
					</g>
					<g>
						<path style="fill:#FFF8E1;" d="M243.484,327.963c0,0.575-0.169,1.057-0.506,1.434c-0.328,0.388-0.805,0.645-1.41,0.774v0.05
							c0.725,0.089,1.271,0.317,1.638,0.68c0.362,0.362,0.546,0.839,0.546,1.444c0,0.873-0.308,1.543-0.923,2.015
							c-0.615,0.477-1.499,0.715-2.63,0.715c-1.008,0-1.856-0.169-2.546-0.496v-1.291c0.382,0.188,0.789,0.338,1.226,0.438
							c0.427,0.103,0.844,0.158,1.24,0.158c0.7,0,1.221-0.129,1.568-0.397c0.348-0.259,0.526-0.66,0.526-1.206
							c0-0.482-0.193-0.839-0.576-1.067c-0.387-0.228-0.992-0.337-1.815-0.337h-0.784v-1.191h0.799c1.444,0,2.169-0.496,2.169-1.499
							c0-0.387-0.125-0.684-0.378-0.902c-0.248-0.209-0.625-0.314-1.111-0.314c-0.348,0-0.675,0.05-0.992,0.145
							c-0.323,0.099-0.695,0.288-1.132,0.565l-0.715-1.013c0.834-0.615,1.797-0.923,2.898-0.923c0.913,0,1.628,0.199,2.139,0.596
							C243.227,326.727,243.484,327.272,243.484,327.963z"/>
					</g>
					<g>
						<path style="fill:#FFF8E1;" d="M198.08,329.749c0,1.786-0.362,3.122-1.082,4.005c-0.719,0.873-1.801,1.32-3.25,1.32
							c-0.548,0-0.943-0.035-1.184-0.1v-1.221c0.367,0.1,0.737,0.148,1.109,0.148c0.985,0,1.719-0.263,2.203-0.794
							c0.484-0.525,0.749-1.359,0.794-2.491h-0.074c-0.243,0.373-0.539,0.641-0.883,0.805c-0.345,0.168-0.75,0.248-1.213,0.248
							c-0.802,0-1.432-0.248-1.893-0.744c-0.457-0.507-0.688-1.191-0.688-2.065c0-0.943,0.266-1.697,0.796-2.264
							c0.531-0.556,1.256-0.833,2.174-0.833c0.645,0,1.208,0.153,1.687,0.466c0.481,0.318,0.851,0.774,1.112,1.37
							C197.948,328.196,198.08,328.91,198.08,329.749z M194.913,326.97c-0.503,0-0.891,0.164-1.158,0.491
							c-0.268,0.328-0.405,0.795-0.405,1.39c0,0.517,0.126,0.923,0.377,1.221c0.251,0.293,0.63,0.438,1.136,0.438
							c0.494,0,0.908-0.145,1.241-0.438c0.337-0.292,0.503-0.635,0.503-1.032c0-0.367-0.072-0.709-0.213-1.031
							c-0.143-0.318-0.342-0.576-0.598-0.755C195.539,327.065,195.246,326.97,194.913,326.97z"/>
					</g>
				</g>
				<g>
					<path style="fill:#FFF3E0;" d="M188.976,221.494c0-0.213,0.03-0.412,0.035-0.621h-5.812v1.236h5.812
						C189.005,221.901,188.976,221.702,188.976,221.494z M193.189,206.522l-5.037-2.908l-0.62,1.077l5.012,2.893
						C192.747,207.222,192.976,206.879,193.189,206.522z M203.968,196.165l-2.898-5.022l-1.072,0.621l2.908,5.042
						C203.258,196.592,203.605,196.364,203.968,196.165z M248.229,204.686l-0.62-1.072l-5.032,2.908
						c0.213,0.352,0.441,0.695,0.64,1.057L248.229,204.686z M217.262,192.622c0.213-0.005,0.412-0.035,0.62-0.035
						s0.412,0.03,0.621,0.035v-5.816h-1.241V192.622z M231.793,196.16c0.361,0.199,0.704,0.427,1.057,0.64l2.908-5.037l-1.072-0.621
						L231.793,196.16z M217.262,250.361v5.816h1.241v-5.816c-0.209,0.005-0.412,0.034-0.621,0.034S217.476,250.366,217.262,250.361z
						 M242.576,236.466l5.032,2.903l0.62-1.072l-5.013-2.893C243.018,235.766,242.789,236.108,242.576,236.466z M246.76,220.874
						c0.005,0.208,0.029,0.407,0.029,0.621c0,0.208-0.025,0.407-0.029,0.615h5.806v-1.236H246.76z M231.793,246.828l2.893,5.012
						l1.072-0.62l-2.908-5.037C232.497,246.396,232.154,246.624,231.793,246.828z M187.532,238.297l0.62,1.072l5.042-2.908
						c-0.213-0.353-0.447-0.695-0.645-1.057L187.532,238.297z M200.002,251.225l1.072,0.615l2.899-5.017
						c-0.362-0.199-0.705-0.427-1.057-0.64L200.002,251.225z"/>
					<path style="fill:#FFF3E0;" d="M208.305,188.145l2.144,8.005c0.397-0.119,0.799-0.213,1.201-0.308l-2.148-8.02L208.305,188.145
						z M184.217,213.112l8.014,2.149c0.094-0.407,0.194-0.809,0.308-1.201l-8-2.144L184.217,213.112z M199.66,202.403l-5.871-5.876
						l-0.874,0.879l5.871,5.871C199.069,202.979,199.362,202.686,199.66,202.403z M236.095,202.393
						c0.303,0.288,0.596,0.576,0.879,0.874l5.865-5.866l-0.873-0.874L236.095,202.393z M251.543,213.112l-0.317-1.196l-7.999,2.144
						c0.119,0.392,0.213,0.794,0.313,1.196L251.543,213.112z M224.115,195.838c0.402,0.099,0.804,0.193,1.201,0.313l2.144-8
						l-1.196-0.323L224.115,195.838z M224.115,247.145l2.148,8.009l1.196-0.323l-2.144-7.999
						C224.919,246.952,224.518,247.046,224.115,247.145z M236.095,240.59l5.871,5.866l0.873-0.874l-5.865-5.866
						C236.69,240.014,236.397,240.307,236.095,240.59z M184.217,229.871l0.322,1.196l8-2.144c-0.114-0.392-0.214-0.794-0.308-1.201
						L184.217,229.871z M243.227,228.923l7.999,2.144l0.317-1.196l-8.004-2.144C243.439,228.129,243.346,228.531,243.227,228.923z
						 M192.916,245.582l0.874,0.874l5.871-5.871c-0.298-0.288-0.591-0.576-0.874-0.879L192.916,245.582z M208.305,254.837
						l1.196,0.322l2.148-8.019c-0.402-0.095-0.804-0.189-1.201-0.308L208.305,254.837z"/>
					<path style="fill:#FFF3E0;" d="M217.877,256.797c-19.468,0-35.303-15.84-35.303-35.303c0-19.468,15.836-35.309,35.303-35.309
						c19.468,0,35.308,15.84,35.308,35.309C253.186,240.957,237.346,256.797,217.877,256.797z M217.877,187.426
						c-18.783,0-34.063,15.28-34.063,34.068c0,18.783,15.28,34.063,34.063,34.063c18.789,0,34.068-15.279,34.068-34.063
						C251.945,202.706,236.666,187.426,217.877,187.426z"/>
					<path style="fill:#D32F2F;" d="M242.402,196.964l-2.625,0.883l-20.446,18.927c-0.461-0.143-0.943-0.243-1.454-0.243
						c-2.734,0-4.953,2.219-4.953,4.958c0,2.734,2.218,4.952,4.953,4.952c2.745,0,4.958-2.218,4.958-4.952
						c0-0.506-0.099-0.988-0.238-1.449l18.933-20.446L242.402,196.964z M217.877,223.965c-1.365,0-2.476-1.112-2.476-2.476
						c0-1.37,1.111-2.482,2.476-2.482c1.365,0,2.482,1.111,2.482,2.482C220.359,222.854,219.242,223.965,217.877,223.965z"/>
				</g>
				<g>
					<g>
						<path style="fill:#FFF8E1;" d="M217.059,200.579c0,0.464-0.129,0.841-0.39,1.137c-0.26,0.295-0.627,0.491-1.104,0.591v0.04
							c0.583,0.072,1.015,0.258,1.296,0.556c0.28,0.298,0.422,0.688,0.422,1.171c0,0.692-0.241,1.223-0.72,1.595
							c-0.479,0.372-1.161,0.558-2.045,0.558c-0.384,0-0.734-0.029-1.054-0.087c-0.32-0.057-0.63-0.159-0.931-0.305v-0.784
							c0.315,0.156,0.65,0.273,1.005,0.355c0.355,0.082,0.692,0.122,1.01,0.122c1.253,0,1.881-0.492,1.881-1.474
							c0-0.881-0.692-1.32-2.075-1.32h-0.714v-0.71h0.725c0.565,0,1.015-0.124,1.345-0.375c0.33-0.25,0.496-0.596,0.496-1.039
							c0-0.355-0.122-0.633-0.365-0.834c-0.243-0.201-0.573-0.303-0.99-0.303c-0.318,0-0.618,0.042-0.899,0.129
							c-0.28,0.087-0.603,0.246-0.963,0.477l-0.417-0.556c0.298-0.236,0.641-0.42,1.03-0.553c0.389-0.134,0.799-0.201,1.228-0.201
							c0.705,0,1.253,0.161,1.643,0.484C216.863,199.574,217.059,200.016,217.059,200.579z"/>
						<path style="fill:#FFF8E1;" d="M223.183,202.49c0,1.253-0.199,2.19-0.593,2.809c-0.395,0.618-1,0.928-1.814,0.928
							c-0.781,0-1.374-0.317-1.781-0.95c-0.407-0.633-0.61-1.563-0.61-2.786c0-1.263,0.196-2.201,0.59-2.814
							c0.395-0.613,0.995-0.918,1.801-0.918c0.787,0,1.385,0.32,1.794,0.958C222.979,200.354,223.183,201.279,223.183,202.49z
							 M219.217,202.49c0,1.054,0.124,1.823,0.372,2.305c0.248,0.481,0.643,0.722,1.186,0.722c0.549,0,0.948-0.243,1.194-0.732
							c0.246-0.489,0.37-1.253,0.37-2.295c0-1.042-0.124-1.807-0.37-2.29c-0.246-0.484-0.645-0.727-1.194-0.727
							c-0.543,0-0.938,0.238-1.186,0.717C219.341,200.669,219.217,201.436,219.217,202.49z"/>
					</g>
					<g>
						<path style="fill:#FFF8E1;" d="M202.087,235.347h-4.769v-0.709l1.911-1.92c0.583-0.588,0.965-1.01,1.151-1.261
							c0.186-0.251,0.325-0.496,0.417-0.734c0.092-0.238,0.139-0.494,0.139-0.769c0-0.387-0.117-0.695-0.353-0.92
							c-0.235-0.226-0.561-0.34-0.977-0.34c-0.3,0-0.585,0.049-0.856,0.148c-0.27,0.1-0.571,0.281-0.901,0.541l-0.437-0.561
							c0.667-0.556,1.397-0.834,2.184-0.834c0.682,0,1.216,0.174,1.603,0.523c0.387,0.35,0.581,0.819,0.581,1.407
							c0,0.459-0.129,0.915-0.387,1.365c-0.258,0.449-0.742,1.02-1.449,1.707l-1.588,1.553v0.04h3.732V235.347z"/>
						<path style="fill:#FFF8E1;" d="M207.938,231.71c0,1.253-0.198,2.191-0.593,2.809c-0.395,0.618-1,0.928-1.814,0.928
							c-0.782,0-1.374-0.318-1.782-0.95c-0.407-0.633-0.61-1.563-0.61-2.787c0-1.263,0.196-2.201,0.591-2.814
							c0.395-0.613,0.995-0.918,1.801-0.918c0.787,0,1.384,0.32,1.794,0.958C207.734,229.573,207.938,230.499,207.938,231.71z
							 M203.973,231.71c0,1.054,0.124,1.824,0.372,2.305c0.248,0.481,0.643,0.722,1.186,0.722c0.548,0,0.948-0.243,1.193-0.732
							c0.246-0.489,0.37-1.253,0.37-2.295c0-1.042-0.124-1.807-0.37-2.291c-0.246-0.483-0.645-0.727-1.193-0.727
							c-0.544,0-0.938,0.238-1.186,0.717C204.097,229.888,203.973,230.655,203.973,231.71z"/>
					</g>
					<g>
						<path style="fill:#FFF8E1;" d="M230.859,235.347h-0.804v-5.171c0-0.429,0.01-0.836,0.04-1.221
							c-0.07,0.069-0.149,0.142-0.233,0.218c-0.085,0.077-0.481,0.4-1.182,0.968l-0.437-0.566l1.921-1.483h0.694V235.347z"/>
						<path style="fill:#FFF8E1;" d="M238.428,231.71c0,1.253-0.199,2.191-0.591,2.809c-0.397,0.618-1.003,0.928-1.816,0.928
							c-0.784,0-1.375-0.318-1.781-0.95c-0.407-0.633-0.61-1.563-0.61-2.787c0-1.263,0.198-2.201,0.59-2.814
							c0.393-0.613,0.998-0.918,1.802-0.918c0.784,0,1.385,0.32,1.796,0.958C238.224,229.573,238.428,230.499,238.428,231.71z
							 M234.462,231.71c0,1.054,0.124,1.824,0.372,2.305c0.249,0.481,0.641,0.722,1.186,0.722s0.948-0.243,1.191-0.732
							c0.248-0.489,0.372-1.253,0.372-2.295c0-1.042-0.124-1.807-0.372-2.291c-0.243-0.483-0.646-0.727-1.191-0.727
							s-0.938,0.238-1.186,0.717C234.586,229.888,234.462,230.655,234.462,231.71z"/>
					</g>
				</g>
				<g>
					<rect x="247.161" y="267.517" style="fill:#212121;" width="70.27" height="15.759"/>
					<path style="fill:#FFF3E0;" d="M317.431,283.275h-70.27v-15.759h70.27V283.275z M248.06,282.382h68.473v-13.967H248.06V282.382
						z"/>
					<rect x="291.715" y="267.963" style="fill:#FFF3E0;" width="0.987" height="14.865"/>
					<g>
						<path style="fill:#FFF3E0;" d="M303.794,280.645h-6.973v-1.032l2.794-2.809c0.849-0.866,1.409-1.481,1.683-1.849
							c0.272-0.367,0.477-0.724,0.61-1.072c0.134-0.352,0.203-0.724,0.203-1.126c0-0.565-0.174-1.017-0.516-1.345
							c-0.343-0.333-0.819-0.501-1.43-0.501c-0.441,0-0.858,0.074-1.25,0.218c-0.397,0.149-0.839,0.412-1.32,0.794l-0.641-0.819
							c0.979-0.814,2.045-1.221,3.196-1.221c0.997,0,1.776,0.253,2.347,0.764c0.562,0.511,0.844,1.196,0.844,2.059
							c0,0.67-0.184,1.335-0.561,1.995c-0.382,0.66-1.087,1.486-2.124,2.499l-2.322,2.272v0.05h5.459V280.645z"/>
						<path style="fill:#FFF3E0;" d="M312.796,278.203h-1.578v2.441h-1.151v-2.441h-5.161v-1.052l5.037-7.173h1.275v7.133h1.578
							V278.203z M310.066,277.111v-3.525c0-0.695,0.025-1.474,0.069-2.348h-0.055c-0.233,0.467-0.451,0.849-0.655,1.156
							l-3.314,4.717H310.066z"/>
					</g>
					<g>
						<path style="fill:#FFF3E0;" d="M257.96,280.645l-3.603-9.406h-0.059c0.069,0.745,0.104,1.633,0.104,2.66v6.746h-1.141v-10.612
							h1.86l3.359,8.757h0.06l3.389-8.757h1.842v10.612h-1.236v-6.835c0-0.784,0.04-1.638,0.104-2.556h-0.055l-3.633,9.391H257.96z"
							/>
						<path style="fill:#FFF3E0;" d="M275.895,275.328c0,1.695-0.427,3.035-1.29,4.007c-0.858,0.973-2.05,1.459-3.583,1.459
							c-1.559,0-2.765-0.477-3.618-1.439c-0.849-0.952-1.271-2.303-1.271-4.042c0-1.727,0.427-3.066,1.275-4.02
							c0.853-0.948,2.064-1.424,3.633-1.424c1.519,0,2.71,0.481,3.568,1.449C275.468,272.286,275.895,273.625,275.895,275.328z
							 M267.439,275.328c0,1.436,0.308,2.528,0.918,3.263c0.61,0.744,1.504,1.121,2.665,1.121c1.181,0,2.064-0.367,2.665-1.111
							c0.601-0.745,0.903-1.837,0.903-3.273c0-1.429-0.303-2.511-0.898-3.251c-0.596-0.734-1.48-1.106-2.65-1.106
							c-1.181,0-2.074,0.372-2.685,1.116C267.746,272.826,267.439,273.908,267.439,275.328z"/>
						<path style="fill:#FFF3E0;" d="M286.549,280.645h-1.409l-5.801-8.905h-0.055c0.074,1.047,0.114,2.005,0.114,2.873v6.032
							h-1.137v-10.612h1.395l5.781,8.876h0.06c-0.01-0.139-0.03-0.556-0.065-1.261c-0.035-0.715-0.045-1.221-0.04-1.519v-6.097
							h1.156V280.645z"/>
					</g>
				</g>
				<path style="fill:#FFF3E0;" d="M307.178,213.465l-3.453-0.6L222.24,267.14c-1.32-0.65-2.789-1.052-4.362-1.052
					c-1.911,0-3.682,0.571-5.201,1.508l-60.071-32.142l-3.395,0.908l0.913,3.379l57.878,35.949
					c-0.005,0.104-0.035,0.204-0.035,0.308c0,5.471,4.436,9.908,9.91,9.908c5.474,0,9.911-4.436,9.911-9.908
					c0-0.362-0.069-0.705-0.105-1.057l78.885-58.022L307.178,213.465z M217.877,281.846c-3.221,0-5.846-2.62-5.846-5.848
					c0-3.226,2.625-5.851,5.846-5.851s5.846,2.625,5.846,5.851C223.724,279.226,221.098,281.846,217.877,281.846z"/>
				<path style="fill:#D32F2F;" d="M226.215,244.887c-1.315-0.347-2.675,0.432-3.032,1.752l-3.846,14.356
					c-0.233,0.878,0.06,1.742,0.65,2.347l-2.759,10.313c-1.042,0.293-1.826,1.211-1.826,2.342c0,0.687,0.278,1.302,0.725,1.75
					l-30.222,112.798c-0.179,0.665,0.213,1.34,0.874,1.519c0.109,0.03,0.218,0.04,0.322,0.04c0.546,0,1.047-0.367,1.196-0.923
					l30.237-112.839c1.042-0.287,1.826-1.21,1.826-2.344c0-0.685-0.283-1.3-0.73-1.752l2.744-10.233
					c0.819-0.223,1.509-0.848,1.747-1.731l3.847-14.357C228.323,246.6,227.539,245.245,226.215,244.887z"/>
			</g>
			<g>
				<path style="fill:#FFF8E1;" d="M135.455,169.561l3.034,3.958c0.318-0.246,0.625-0.501,0.948-0.742l-3.037-3.958
					C136.08,169.063,135.772,169.318,135.455,169.561z M195.953,148.225l-0.866-4.91c-0.395,0.067-0.789,0.141-1.184,0.213
					l0.866,4.908C195.162,148.366,195.556,148.292,195.953,148.225z M201.548,147.403l-0.653-4.945
					c-0.397,0.052-0.794,0.1-1.191,0.154l0.65,4.942C200.752,147.5,201.151,147.453,201.548,147.403z M126.487,177.144l3.367,3.678
					c0.298-0.273,0.578-0.561,0.876-0.832l-3.37-3.677C127.063,176.583,126.783,176.871,126.487,177.144z M163.624,158.239
					l-2.106-4.519c-0.362,0.164-0.732,0.32-1.092,0.491l2.106,4.521C162.895,158.564,163.265,158.408,163.624,158.239z
					 M140.172,166.07l2.858,4.085c0.33-0.233,0.652-0.469,0.982-0.697l-2.858-4.084C140.824,165.601,140.502,165.839,140.172,166.07
					z M184.892,150.589l-1.29-4.816c-0.387,0.099-0.767,0.221-1.151,0.325l1.29,4.816
					C184.125,150.81,184.504,150.691,184.892,150.589z M88.777,264.08l-4.968-0.432c-0.032,0.396-0.055,0.799-0.089,1.198
					l4.968,0.432C88.72,264.881,88.74,264.479,88.777,264.08z M174.091,153.941l-1.707-4.687c-0.377,0.134-0.76,0.263-1.134,0.402
					l1.707,4.688C173.331,154.205,173.711,154.076,174.091,153.941z M179.45,152.135l-1.501-4.762
					c-0.382,0.122-0.757,0.261-1.142,0.382l1.501,4.756C178.691,152.391,179.065,152.252,179.45,152.135z M168.813,155.974
					l-1.908-4.605c-0.37,0.151-0.75,0.286-1.119,0.439l1.906,4.61C168.061,156.262,168.441,156.127,168.813,155.974z
					 M130.889,173.258l3.206,3.819c0.305-0.261,0.6-0.531,0.911-0.789l-3.206-3.819
					C131.492,172.725,131.197,172.998,130.889,173.258z M92.792,241.838l-4.816-1.29c-0.106,0.384-0.228,0.767-0.327,1.156
					l4.816,1.29C92.563,242.605,92.685,242.225,92.792,241.838z M91.432,247.329l-4.871-1.08c-0.087,0.392-0.184,0.779-0.271,1.171
					l4.871,1.079C91.244,248.108,91.343,247.721,91.432,247.329z M90.308,252.874l-4.91-0.866c-0.07,0.395-0.144,0.786-0.211,1.184
					l4.91,0.866C90.164,253.661,90.236,253.269,90.308,252.874z M94.39,236.411l-4.756-1.501c-0.124,0.382-0.263,0.757-0.382,1.142
					l4.757,1.501C94.127,237.168,94.266,236.794,94.39,236.411z M89.422,258.462l-4.94-0.653c-0.052,0.397-0.104,0.797-0.154,1.194
					l4.943,0.65C89.323,259.256,89.37,258.857,89.422,258.462z M96.221,231.06l-4.687-1.708c-0.139,0.377-0.268,0.757-0.405,1.134
					l4.687,1.707C95.953,231.816,96.082,231.434,96.221,231.06z M118.967,192.203l-3.821-3.206c-0.26,0.308-0.531,0.602-0.789,0.91
					l3.819,3.209C118.434,192.803,118.706,192.508,118.967,192.203z M122.711,187.965l-3.677-3.37
					c-0.273,0.297-0.561,0.576-0.829,0.871l3.675,3.37C122.15,188.54,122.438,188.26,122.711,187.965z M126.634,183.891
					l-3.526-3.526c-0.283,0.283-0.568,0.566-0.851,0.852l3.526,3.525C126.065,184.456,126.349,184.173,126.634,183.891z
					 M93.248,225.005l4.608,1.908c0.148-0.372,0.283-0.752,0.439-1.119l-4.605-1.908C93.534,224.256,93.4,224.633,93.248,225.005z
					 M115.406,196.595l-3.955-3.035c-0.246,0.315-0.499,0.622-0.742,0.945l3.955,3.035
					C114.907,197.22,115.161,196.91,115.406,196.595z M190.397,149.289l-1.079-4.871c-0.395,0.084-0.782,0.186-1.171,0.27
					l1.08,4.871C189.618,149.468,190.005,149.371,190.397,149.289z M342.492,225.02c-0.154-0.37-0.283-0.75-0.442-1.119l-4.61,1.908
					c0.154,0.367,0.293,0.747,0.442,1.119L342.492,225.02z M321.078,197.555l3.96-3.035c-0.248-0.32-0.501-0.627-0.744-0.945
					l-3.955,3.035C320.582,196.924,320.84,197.234,321.078,197.555z M339.916,232.208l4.69-1.707
					c-0.134-0.375-0.263-0.757-0.401-1.134l-4.685,1.705C339.658,231.449,339.782,231.831,339.916,232.208z M234.214,147.406
					c0.397,0.052,0.8,0.099,1.196,0.154l0.65-4.942c-0.397-0.055-0.794-0.102-1.191-0.154L234.214,147.406z M317.564,193.126
					l3.821-3.206c-0.258-0.31-0.525-0.603-0.789-0.911l-3.815,3.203C317.039,192.52,317.307,192.815,317.564,193.126z
					 M341.727,237.565l4.759-1.501c-0.119-0.382-0.258-0.754-0.382-1.136l-4.759,1.499
					C341.475,236.809,341.608,237.183,341.727,237.565z M313.863,188.851l3.677-3.37c-0.272-0.298-0.561-0.573-0.829-0.871
					l-3.677,3.367C313.307,188.275,313.595,188.555,313.863,188.851z M343.27,243.007l4.819-1.291
					c-0.104-0.39-0.224-0.769-0.333-1.156l-4.813,1.29C343.048,242.237,343.172,242.617,343.27,243.007z M347.042,265.283
					l4.973-0.434c-0.034-0.395-0.06-0.799-0.095-1.196l-4.967,0.432C346.992,264.484,347.013,264.886,347.042,265.283z
					 M346.457,259.661l4.947-0.65c-0.05-0.399-0.1-0.796-0.154-1.193l-4.942,0.65C346.362,258.864,346.412,259.261,346.457,259.661z
					 M344.576,248.513l4.868-1.08c-0.09-0.395-0.184-0.782-0.273-1.173l-4.868,1.081
					C344.393,247.733,344.491,248.121,344.576,248.513z M345.638,254.065l4.908-0.863c-0.069-0.397-0.139-0.789-0.208-1.184
					l-4.913,0.863C345.494,253.276,345.568,253.671,345.638,254.065z M309.962,184.756l3.523-3.523
					c-0.277-0.288-0.565-0.571-0.844-0.854l-3.528,3.526C309.396,184.188,309.68,184.471,309.962,184.756z M261.667,153.949
					c0.382,0.136,0.765,0.265,1.142,0.407l1.707-4.69c-0.377-0.139-0.765-0.268-1.142-0.404L261.667,153.949z M256.313,152.143
					c0.382,0.119,0.759,0.258,1.142,0.38l1.493-4.757c-0.377-0.124-0.754-0.263-1.137-0.382L256.313,152.143z M250.868,150.597
					c0.388,0.102,0.77,0.224,1.156,0.328l1.296-4.816c-0.388-0.107-0.774-0.226-1.162-0.325L250.868,150.597z M245.365,149.297
					c0.392,0.081,0.779,0.178,1.171,0.268l1.077-4.868c-0.388-0.087-0.774-0.186-1.172-0.271L245.365,149.297z M239.811,148.232
					c0.398,0.066,0.789,0.139,1.182,0.21l0.863-4.91c-0.387-0.072-0.784-0.144-1.181-0.213L239.811,148.232z M295.576,166.083
					c-0.328-0.233-0.65-0.472-0.978-0.7l-2.858,4.084c0.327,0.229,0.649,0.466,0.973,0.7L295.576,166.083z M300.295,169.576
					c-0.317-0.246-0.625-0.501-0.942-0.742l-3.037,3.953c0.317,0.246,0.625,0.499,0.942,0.745L300.295,169.576z M304.86,173.273
					c-0.308-0.26-0.604-0.531-0.913-0.787l-3.2,3.816c0.303,0.258,0.601,0.528,0.908,0.787L304.86,173.273z M266.947,155.986
					c0.367,0.151,0.749,0.288,1.121,0.441l1.906-4.607c-0.367-0.157-0.745-0.29-1.122-0.439L266.947,155.986z M309.258,177.156
					c-0.293-0.271-0.571-0.558-0.874-0.829l-3.364,3.677c0.298,0.271,0.576,0.556,0.868,0.829L309.258,177.156z M272.128,158.251
					c0.367,0.167,0.734,0.323,1.102,0.494l2.105-4.521c-0.367-0.169-0.734-0.328-1.092-0.491L272.128,158.251z M130.882,378.734
					c0.305,0.258,0.603,0.536,0.908,0.789l3.206-3.816c-0.308-0.258-0.605-0.531-0.908-0.789L130.882,378.734z M239.787,403.775
					l0.868,4.913c0.397-0.069,0.784-0.145,1.182-0.219l-0.864-4.908C240.576,403.631,240.179,403.706,239.787,403.775z
					 M291.74,382.525l2.858,4.09c0.332-0.229,0.654-0.467,0.982-0.7l-2.858-4.084C292.395,382.065,292.067,382.297,291.74,382.525z
					 M305.029,371.985l3.365,3.683c0.297-0.273,0.575-0.562,0.873-0.834l-3.369-3.673
					C305.605,371.43,305.327,371.717,305.029,371.985z M300.752,375.692l3.205,3.816c0.309-0.259,0.605-0.526,0.908-0.784
					l-3.2-3.821C301.357,375.161,301.06,375.435,300.752,375.692z M272.118,393.751l2.114,4.521
					c0.357-0.163,0.734-0.322,1.092-0.491l-2.104-4.521C272.852,393.434,272.485,393.582,272.118,393.751z M296.32,379.211
					l3.032,3.95c0.322-0.238,0.635-0.496,0.947-0.745l-3.032-3.949C296.95,378.709,296.638,378.963,296.32,379.211z
					 M245.345,402.708l1.077,4.868c0.397-0.079,0.784-0.179,1.171-0.268l-1.076-4.873
					C246.124,402.529,245.737,402.624,245.345,402.708z M250.854,401.408l1.29,4.818c0.392-0.104,0.77-0.223,1.156-0.327
					l-1.29-4.819C251.623,401.185,251.24,401.304,250.854,401.408z M261.657,398.054l1.707,4.689
					c0.377-0.139,0.754-0.269,1.131-0.407l-1.707-4.685C262.416,397.79,262.034,397.92,261.657,398.054z M256.297,399.865
					l1.499,4.754c0.388-0.119,0.755-0.258,1.142-0.377l-1.499-4.76C257.052,399.606,256.68,399.746,256.297,399.865z
					 M266.938,396.019l1.905,4.605c0.377-0.149,0.754-0.283,1.121-0.441l-1.905-4.605
					C267.686,395.73,267.305,395.865,266.938,396.019z M309.119,368.085l3.527,3.528c0.283-0.283,0.571-0.571,0.85-0.849
					l-3.523-3.533C309.685,367.519,309.406,367.807,309.119,368.085z M345.43,299.086l4.913,0.868
					c0.069-0.392,0.143-0.789,0.213-1.186l-4.913-0.863C345.573,298.302,345.504,298.693,345.43,299.086z M342.953,310.122
					l4.814,1.29c0.109-0.387,0.228-0.764,0.328-1.156l-4.814-1.29C343.177,309.353,343.053,309.735,342.953,310.122z
					 M344.313,304.634l4.863,1.077c0.09-0.393,0.189-0.779,0.273-1.172l-4.868-1.076
					C344.491,303.85,344.397,304.236,344.313,304.634z M346.313,293.503l4.943,0.65c0.055-0.397,0.104-0.794,0.153-1.191
					l-4.942-0.655C346.417,292.704,346.367,293.101,346.313,293.503z M347.053,286.685c-0.04,0.396-0.061,0.799-0.1,1.195
					l4.973,0.438c0.029-0.398,0.06-0.8,0.089-1.201L347.053,286.685z M320.349,355.381l3.955,3.032
					c0.243-0.318,0.496-0.626,0.745-0.948l-3.961-3.032C320.85,354.75,320.592,355.063,320.349,355.381z M316.791,359.777
					l3.82,3.201c0.259-0.308,0.526-0.601,0.784-0.908l-3.821-3.206C317.316,359.172,317.049,359.47,316.791,359.777z
					 M313.044,364.016l3.677,3.364c0.269-0.293,0.557-0.575,0.829-0.873l-3.677-3.365
					C313.604,363.44,313.316,363.718,313.044,364.016z M341.355,315.552l4.754,1.498c0.124-0.387,0.263-0.754,0.387-1.142
					l-4.764-1.498C341.613,314.797,341.475,315.169,341.355,315.552z M337.449,326.171l4.61,1.906
					c0.154-0.367,0.288-0.75,0.436-1.122l-4.604-1.905C337.742,325.417,337.603,325.799,337.449,326.171z M339.524,320.906
					l4.69,1.707c0.139-0.377,0.267-0.76,0.396-1.137l-4.685-1.707C339.792,320.147,339.663,320.529,339.524,320.906z M95.802,319.77
					l-4.685,1.707c0.136,0.377,0.263,0.76,0.402,1.137l4.687-1.707C96.067,320.533,95.938,320.147,95.802,319.77z M93.233,326.96
					c0.151,0.372,0.286,0.75,0.442,1.122l4.608-1.911c-0.157-0.367-0.288-0.744-0.442-1.121L93.233,326.96z M125.773,367.246
					l-3.526,3.528c0.28,0.283,0.563,0.565,0.851,0.849l3.523-3.528C126.336,367.816,126.053,367.529,125.773,367.246z
					 M88.683,286.68l-4.968,0.432c0.035,0.401,0.06,0.799,0.092,1.195l4.968-0.432C88.737,287.474,88.718,287.076,88.683,286.68z
					 M121.867,363.152l-3.675,3.364c0.271,0.298,0.556,0.581,0.829,0.873l3.677-3.364
					C122.426,363.728,122.138,363.444,121.867,363.152z M118.165,358.874l-3.821,3.206c0.255,0.308,0.528,0.601,0.789,0.908
					l3.819-3.201C118.694,359.479,118.421,359.182,118.165,358.874z M114.649,354.438l-3.958,3.037
					c0.241,0.317,0.499,0.625,0.742,0.943l3.958-3.037C115.146,355.068,114.89,354.756,114.649,354.438z M90.09,297.899
					l-4.911,0.868c0.065,0.393,0.139,0.784,0.211,1.182l4.911-0.868C90.229,298.689,90.157,298.292,90.09,297.899z M89.266,292.297
					l-4.945,0.655c0.052,0.397,0.102,0.794,0.154,1.191l4.943-0.649C89.365,293.096,89.315,292.699,89.266,292.297z M91.152,303.458
					l-4.871,1.076c0.087,0.397,0.183,0.784,0.271,1.172l4.871-1.077C91.333,304.236,91.234,303.85,91.152,303.458z M93.998,314.41
					l-4.757,1.498c0.119,0.388,0.258,0.76,0.38,1.142l4.754-1.498C94.253,315.174,94.117,314.797,93.998,314.41z M92.452,308.966
					l-4.816,1.29c0.1,0.388,0.224,0.77,0.328,1.156l4.816-1.29C92.675,309.735,92.554,309.353,92.452,308.966z M165.798,400.197
					c0.37,0.154,0.75,0.283,1.119,0.441l1.908-4.605c-0.37-0.158-0.749-0.287-1.119-0.446L165.798,400.197z M182.465,405.909
					c0.39,0.1,0.767,0.224,1.156,0.322l1.29-4.818c-0.389-0.1-0.769-0.219-1.156-0.327L182.465,405.909z M188.167,407.318
					c0.392,0.079,0.779,0.184,1.171,0.268l1.08-4.873c-0.392-0.079-0.779-0.179-1.171-0.268L188.167,407.318z M199.729,409.393
					c0.397,0.05,0.796,0.1,1.196,0.149l0.65-4.943c-0.399-0.049-0.796-0.099-1.194-0.148L199.729,409.393z M193.931,408.479
					c0.392,0.069,0.787,0.145,1.181,0.209l0.866-4.913c-0.395-0.06-0.789-0.139-1.181-0.209L193.931,408.479z M176.827,404.252
					c0.382,0.119,0.76,0.258,1.142,0.377l1.501-4.754c-0.384-0.119-0.759-0.259-1.141-0.377L176.827,404.252z M135.45,382.436
					c0.318,0.238,0.626,0.496,0.943,0.739l3.037-3.955c-0.32-0.243-0.628-0.496-0.945-0.744L135.45,382.436z M140.172,385.93
					c0.327,0.229,0.65,0.467,0.98,0.695l2.858-4.079c-0.33-0.228-0.653-0.467-0.98-0.7L140.172,385.93z M126.477,374.849
					c0.298,0.272,0.576,0.561,0.871,0.829l3.372-3.678c-0.298-0.272-0.581-0.556-0.874-0.828L126.477,374.849z M171.265,402.351
					c0.377,0.14,0.757,0.264,1.136,0.402l1.707-4.685c-0.379-0.139-0.759-0.268-1.136-0.407L171.265,402.351z M234.189,404.599
					l0.65,4.943c0.396-0.05,0.794-0.1,1.19-0.154l-0.645-4.942C234.988,404.5,234.586,404.545,234.189,404.599z M160.436,397.79
					c0.36,0.169,0.729,0.328,1.094,0.497l2.109-4.517c-0.365-0.174-0.734-0.327-1.097-0.496L160.436,397.79z"/>
			</g>
			
				<radialGradient id="SVGID_00000062900465020304867030000001780885905644802226_" cx="217.8772" cy="275.9976" r="124.5011" gradientUnits="userSpaceOnUse">
				<stop  offset="0.7362" style="stop-color:#FFFFFF"/>
				<stop  offset="0.8345" style="stop-color:#FDFDFD"/>
				<stop  offset="0.8699" style="stop-color:#F6F6F6"/>
				<stop  offset="0.8952" style="stop-color:#EBEBEB"/>
				<stop  offset="0.9156" style="stop-color:#DADADA"/>
				<stop  offset="0.9331" style="stop-color:#C4C4C4"/>
				<stop  offset="0.9486" style="stop-color:#A8A8A8"/>
				<stop  offset="0.9626" style="stop-color:#888888"/>
				<stop  offset="0.9754" style="stop-color:#626262"/>
				<stop  offset="0.9874" style="stop-color:#373737"/>
				<stop  offset="0.9981" style="stop-color:#090909"/>
				<stop  offset="1" style="stop-color:#000000"/>
			</radialGradient>
			<path style="opacity:0.1;fill:url(#SVGID_00000062900465020304867030000001780885905644802226_);" d="M342.377,275.998
				c0,68.758-55.743,124.502-124.5,124.502c-68.766,0-124.5-55.744-124.5-124.502c0-68.761,55.734-124.502,124.5-124.502
				C286.634,151.495,342.377,207.237,342.377,275.998z"/>
			<path style="opacity:0.1;fill:#FAFAFA;" d="M217.878,270.415c43.837,0,85.793,2.865,124.467,8.098
				c0.017-0.837,0.032-1.675,0.032-2.515c0-68.761-55.743-124.502-124.5-124.502c-68.766,0-124.5,55.742-124.5,124.502
				c0,0.84,0.015,1.677,0.032,2.513C132.083,273.28,174.039,270.415,217.878,270.415z"/>
		</g>
	</g>
</g>
</svg>
