<svg xmlns="http://www.w3.org/2000/svg" xmlns:xlink="http://www.w3.org/1999/xlink" version="1.1" width="256" height="256" viewBox="0 0 256 256" xml:space="preserve">

<defs>
</defs>
<g style="stroke: none; stroke-width: 0; stroke-dasharray: none; stroke-linecap: butt; stroke-linejoin: miter; stroke-miterlimit: 10; fill: none; fill-rule: nonzero; opacity: 1;" transform="translate(1.4065934065934016 1.4065934065934016) scale(2.81 2.81)" >
	<circle cx="45" cy="45" r="45" style="stroke: none; stroke-width: 1; stroke-dasharray: none; stroke-linecap: butt; stroke-linejoin: miter; stroke-miterlimit: 10; fill: rgb(32,196,203); fill-rule: nonzero; opacity: 1;" transform="  matrix(1 0 0 1 0 0) "/>
	<path d="M 70.772 55.198 L 42.477 26.903 l -0.003 0.003 c -0.201 -0.202 -0.463 -0.351 -0.764 -0.397 l -23.863 -3.655 c -0.839 -0.129 -1.459 0.492 -1.331 1.331 l 3.655 23.863 c 0.046 0.302 0.2 0.56 0.401 0.76 L 20.57 48.81 l 28.294 28.294 c 0.458 0.458 1.139 0.526 1.514 0.151 l 20.544 -20.544 C 71.298 56.337 71.23 55.656 70.772 55.198 z M 20.832 31.143 c -1.098 -1.098 -1.098 -2.879 0 -3.978 c 1.098 -1.098 2.879 -1.098 3.978 0 c 1.098 1.098 1.098 2.879 0 3.978 C 23.712 32.242 21.931 32.242 20.832 31.143 z" style="stroke: none; stroke-width: 1; stroke-dasharray: none; stroke-linecap: butt; stroke-linejoin: miter; stroke-miterlimit: 10; fill: rgb(27,167,173); fill-rule: nonzero; opacity: 1;" transform=" matrix(1 0 0 1 0 0) " stroke-linecap="round" />
	<path d="M 74.107 51.863 L 45.812 23.568 l -0.003 0.003 c -0.201 -0.202 -0.463 -0.351 -0.764 -0.397 l -23.863 -3.655 c -0.839 -0.129 -1.459 0.492 -1.331 1.331 l 3.655 23.863 c 0.046 0.302 0.2 0.56 0.401 0.76 l -0.003 0.003 L 52.2 73.77 c 0.458 0.458 1.139 0.526 1.514 0.151 l 20.544 -20.544 C 74.633 53.002 74.565 52.321 74.107 51.863 z M 24.167 27.808 c -1.098 -1.098 -1.098 -2.879 0 -3.978 c 1.098 -1.098 2.879 -1.098 3.978 0 c 1.098 1.098 1.098 2.879 0 3.978 C 27.047 28.907 25.266 28.907 24.167 27.808 z" style="stroke: none; stroke-width: 1; stroke-dasharray: none; stroke-linecap: butt; stroke-linejoin: miter; stroke-miterlimit: 10; fill: rgb(255,255,255); fill-rule: nonzero; opacity: 1;" transform=" matrix(1 0 0 1 0 0) " stroke-linecap="round" />
</g>
</svg>